<?xml version="1.0" encoding="us-ascii" standalone="no"?><svg xmlns="http://www.w3.org/2000/svg" xmlns:xlink="http://www.w3.org/1999/xlink" contentStyleType="text/css" height="546px" preserveAspectRatio="none" style="width:969px;height:546px;background:#FFFFFF;" version="1.1" viewBox="0 0 969 546" width="969px" zoomAndPan="magnify"><defs/><g><rect fill="none" height="91.2422" style="stroke:#000000;stroke-width:1.5;" width="818" x="10" y="285.9727"/><line style="stroke:#181818;stroke-width:0.5;stroke-dasharray:5.0,5.0;" x1="110" x2="110" y1="36.4883" y2="511.457"/><line style="stroke:#181818;stroke-width:0.5;stroke-dasharray:5.0,5.0;" x1="776" x2="776" y1="36.4883" y2="511.457"/><rect fill="#E2E2F0" height="30.4883" rx="2.5" ry="2.5" style="stroke:#181818;stroke-width:0.5;" width="180" x="20" y="5"/><text fill="#000000" font-family="sans-serif" font-size="14" lengthAdjust="spacing" textLength="166" x="27" y="25.5352">Shared Care FHIR Server</text><rect fill="#E2E2F0" height="30.4883" rx="2.5" ry="2.5" style="stroke:#181818;stroke-width:0.5;" width="180" x="20" y="510.457"/><text fill="#000000" font-family="sans-serif" font-size="14" lengthAdjust="spacing" textLength="166" x="27" y="530.9922">Shared Care FHIR Server</text><rect fill="#E2E2F0" height="30.4883" rx="2.5" ry="2.5" style="stroke:#181818;stroke-width:0.5;" width="84" x="734" y="5"/><text fill="#000000" font-family="sans-serif" font-size="14" lengthAdjust="spacing" textLength="70" x="741" y="25.5352">Piki te Ora</text><rect fill="#E2E2F0" height="30.4883" rx="2.5" ry="2.5" style="stroke:#181818;stroke-width:0.5;" width="84" x="734" y="510.457"/><text fill="#000000" font-family="sans-serif" font-size="14" lengthAdjust="spacing" textLength="70" x="741" y="530.9922">Piki te Ora</text><rect fill="#EEEEEE" height="3" style="stroke:#EEEEEE;stroke-width:1.0;" width="962" x="0" y="67.1436"/><line style="stroke:#000000;stroke-width:1.0;" x1="0" x2="962" y1="67.1436" y2="67.1436"/><line style="stroke:#000000;stroke-width:1.0;" x1="0" x2="962" y1="70.1436" y2="70.1436"/><rect fill="#EEEEEE" height="23.3105" style="stroke:#000000;stroke-width:2.0;" width="133" x="414.5" y="56.4883"/><text fill="#000000" font-family="sans-serif" font-size="13" font-weight="bold" lengthAdjust="spacing" textLength="115" x="420.5" y="73.0566">Consent Rotation</text><polygon fill="#181818" points="121,107.1094,111,111.1094,121,115.1094,117,111.1094" style="stroke:#181818;stroke-width:1.0;"/><line style="stroke:#181818;stroke-width:1.0;" x1="115" x2="775" y1="111.1094" y2="111.1094"/><text fill="#000000" font-family="sans-serif" font-size="13" lengthAdjust="spacing" textLength="642" x="127" y="106.3672">GET Consent?patient.identifier={PatientNHI}&amp;&amp;_sort=-_lastUpdated&amp;_tag=RemoteMonitoringViewable</text><polygon fill="#181818" points="764,151.7305,774,155.7305,764,159.7305,768,155.7305" style="stroke:#181818;stroke-width:1.0;"/><line style="stroke:#181818;stroke-width:1.0;stroke-dasharray:2.0,2.0;" x1="110" x2="770" y1="155.7305" y2="155.7305"/><text fill="#000000" font-family="sans-serif" font-size="13" lengthAdjust="spacing" textLength="110" x="117" y="135.6777">Bundle(Consent[])</text><text fill="#000000" font-family="sans-serif" font-size="13" lengthAdjust="spacing" textLength="179" x="117" y="150.9883">(sorted by lastUpdated desc)</text><line style="stroke:#181818;stroke-width:1.0;" x1="776" x2="818" y1="200.3516" y2="200.3516"/><line style="stroke:#181818;stroke-width:1.0;" x1="818" x2="818" y1="200.3516" y2="213.3516"/><line style="stroke:#181818;stroke-width:1.0;" x1="777" x2="818" y1="213.3516" y2="213.3516"/><polygon fill="#181818" points="787,209.3516,777,213.3516,787,217.3516,783,213.3516" style="stroke:#181818;stroke-width:1.0;"/><text fill="#000000" font-family="sans-serif" font-size="13" lengthAdjust="spacing" textLength="172" x="783" y="180.2988">Select most recent Consent</text><text fill="#000000" font-family="sans-serif" font-size="13" lengthAdjust="spacing" textLength="133" x="783" y="195.6094">from returned Bundle</text><line style="stroke:#181818;stroke-width:1.0;" x1="776" x2="818" y1="257.9727" y2="257.9727"/><line style="stroke:#181818;stroke-width:1.0;" x1="818" x2="818" y1="257.9727" y2="270.9727"/><line style="stroke:#181818;stroke-width:1.0;" x1="777" x2="818" y1="270.9727" y2="270.9727"/><polygon fill="#181818" points="787,266.9727,777,270.9727,787,274.9727,783,270.9727" style="stroke:#181818;stroke-width:1.0;"/><text fill="#000000" font-family="sans-serif" font-size="13" lengthAdjust="spacing" textLength="141" x="783" y="237.9199">Check size of Consent</text><text fill="#000000" font-family="sans-serif" font-size="13" lengthAdjust="spacing" textLength="131" x="783" y="253.2305">(e.g., &gt; 10,000 lines)</text><path d="M10,285.9727 L72,285.9727 L72,293.2832 L62,303.2832 L10,303.2832 L10,285.9727 " fill="#EEEEEE" style="stroke:#000000;stroke-width:1.5;"/><rect fill="none" height="91.2422" style="stroke:#000000;stroke-width:1.5;" width="818" x="10" y="285.9727"/><text fill="#000000" font-family="sans-serif" font-size="13" font-weight="bold" lengthAdjust="spacing" textLength="17" x="25" y="299.541">alt</text><text fill="#000000" font-family="sans-serif" font-size="11" font-weight="bold" lengthAdjust="spacing" textLength="139" x="87" y="298.6074">[Consent &gt; 10,000 lines]</text><polygon fill="#181818" points="121,335.9043,111,339.9043,121,343.9043,117,339.9043" style="stroke:#181818;stroke-width:1.0;"/><line style="stroke:#181818;stroke-width:1.0;" x1="115" x2="775" y1="339.9043" y2="339.9043"/><text fill="#000000" font-family="sans-serif" font-size="13" lengthAdjust="spacing" textLength="88" x="127" y="319.8516">POST Consent</text><text fill="#000000" font-family="sans-serif" font-size="13" lengthAdjust="spacing" textLength="133" x="127" y="335.1621">(Create new Consent)</text><polygon fill="#181818" points="764,365.2148,774,369.2148,764,373.2148,768,369.2148" style="stroke:#181818;stroke-width:1.0;"/><line style="stroke:#181818;stroke-width:1.0;stroke-dasharray:2.0,2.0;" x1="110" x2="770" y1="369.2148" y2="369.2148"/><text fill="#000000" font-family="sans-serif" font-size="13" lengthAdjust="spacing" textLength="171" x="117" y="364.4727">201 Created (New Consent)</text><rect fill="#EEEEEE" height="3" style="stroke:#EEEEEE;stroke-width:1.0;" width="962" x="0" y="404.8701"/><line style="stroke:#000000;stroke-width:1.0;" x1="0" x2="962" y1="404.8701" y2="404.8701"/><line style="stroke:#000000;stroke-width:1.0;" x1="0" x2="962" y1="407.8701" y2="407.8701"/><rect fill="#EEEEEE" height="23.3105" style="stroke:#000000;stroke-width:2.0;" width="152" x="405" y="394.2148"/><text fill="#000000" font-family="sans-serif" font-size="13" font-weight="bold" lengthAdjust="spacing" textLength="134" x="411" y="410.7832">Add New Provisions</text><polygon fill="#181818" points="121,460.1465,111,464.1465,121,468.1465,117,464.1465" style="stroke:#181818;stroke-width:1.0;"/><line style="stroke:#181818;stroke-width:1.0;" x1="115" x2="775" y1="464.1465" y2="464.1465"/><text fill="#000000" font-family="sans-serif" font-size="13" lengthAdjust="spacing" textLength="144" x="127" y="444.0938">PUT Consent/{targetId}</text><text fill="#000000" font-family="sans-serif" font-size="13" lengthAdjust="spacing" textLength="132" x="127" y="459.4043">(Add new provisions)</text><polygon fill="#181818" points="764,489.457,774,493.457,764,497.457,768,493.457" style="stroke:#181818;stroke-width:1.0;"/><line style="stroke:#181818;stroke-width:1.0;stroke-dasharray:2.0,2.0;" x1="110" x2="770" y1="493.457" y2="493.457"/><text fill="#000000" font-family="sans-serif" font-size="13" lengthAdjust="spacing" textLength="46" x="117" y="488.7148">200 OK</text><!--SRC=[PL5VQy8m47_FfpXya1RKrJqATRYoJHbJiRgNEIGsPmtMf2HHsSJllhJLhkloS25tlpztkPGgmoEUKc6W4MwfGWQ1ZV0y7CqWH7L4rG2gypT9g-Wftt4m21D5SyGWJGdnVGYaq6W1CsceuLA0xnDYYz3k5wezU7cQts0FgGNPkyEPZNp3KVddQP4R3qUNPdEbfJ9-UvLGRHOfemPPSsLexCzmBms-IS6DL5p4xnnFT9qWoLtQrYvpxS7ZGR04dQlXnwSBi1HEfcg7NNz1HHWOwiWjsotu8IOO6TXBRK1XbCrsrLgAZP9xcpG79IoxSAhHWor6Ez3y6q5kVfaETk9E2_hGzLgUvq721MfhJPDIlbOaOC_VZvnEmdb5Cb1efm21frlIpKcr3xdtkb106JZZAXW5otSuO0oombJ98zTsYJhROirxKLhVdGrLCPeHkzWkCdBMGbgINVAl0mych-G7]--></g></svg>