<?xml version="1.0" encoding="us-ascii" standalone="no"?><svg xmlns="http://www.w3.org/2000/svg" xmlns:xlink="http://www.w3.org/1999/xlink" contentStyleType="text/css" height="545px" preserveAspectRatio="none" style="width:1666px;height:545px;background:#FFFFFF;" version="1.1" viewBox="0 0 1666 545" width="1666px" zoomAndPan="magnify"><defs/><g><line style="stroke:#181818;stroke-width:0.5;stroke-dasharray:5.0,5.0;" x1="70" x2="70" y1="81.4883" y2="464.9043"/><line style="stroke:#181818;stroke-width:0.5;stroke-dasharray:5.0,5.0;" x1="209" x2="209" y1="81.4883" y2="464.9043"/><line style="stroke:#181818;stroke-width:0.5;stroke-dasharray:5.0,5.0;" x1="593.5" x2="593.5" y1="81.4883" y2="464.9043"/><line style="stroke:#181818;stroke-width:0.5;stroke-dasharray:5.0,5.0;" x1="722.5" x2="722.5" y1="81.4883" y2="464.9043"/><line style="stroke:#181818;stroke-width:0.5;stroke-dasharray:5.0,5.0;" x1="865.5" x2="865.5" y1="81.4883" y2="464.9043"/><line style="stroke:#181818;stroke-width:0.5;stroke-dasharray:5.0,5.0;" x1="1004.5" x2="1004.5" y1="81.4883" y2="464.9043"/><line style="stroke:#181818;stroke-width:0.5;stroke-dasharray:5.0,5.0;" x1="1366.5" x2="1366.5" y1="81.4883" y2="464.9043"/><line style="stroke:#181818;stroke-width:0.5;stroke-dasharray:5.0,5.0;" x1="1559" x2="1559" y1="81.4883" y2="464.9043"/><text fill="#000000" font-family="sans-serif" font-size="14" lengthAdjust="spacing" textLength="124" x="5" y="78.5352">AdminPractitioner</text><ellipse cx="70" cy="13.5" fill="#E2E2F0" rx="8" ry="8" style="stroke:#181818;stroke-width:0.5;"/><path d="M70,21.5 L70,48.5 M57,29.5 L83,29.5 M70,48.5 L57,63.5 M70,48.5 L83,63.5 " fill="none" style="stroke:#181818;stroke-width:0.5;"/><text fill="#000000" font-family="sans-serif" font-size="14" lengthAdjust="spacing" textLength="124" x="5" y="477.4395">AdminPractitioner</text><ellipse cx="70" cy="488.8926" fill="#E2E2F0" rx="8" ry="8" style="stroke:#181818;stroke-width:0.5;"/><path d="M70,496.8926 L70,523.8926 M57,504.8926 L83,504.8926 M70,523.8926 L57,538.8926 M70,523.8926 L83,538.8926 " fill="none" style="stroke:#181818;stroke-width:0.5;"/><rect fill="#E2E2F0" height="30.4883" rx="2.5" ry="2.5" style="stroke:#181818;stroke-width:0.5;" width="129" x="145" y="50"/><text fill="#000000" font-family="sans-serif" font-size="14" lengthAdjust="spacing" textLength="115" x="152" y="70.5352">Practitioner View</text><rect fill="#E2E2F0" height="30.4883" rx="2.5" ry="2.5" style="stroke:#181818;stroke-width:0.5;" width="129" x="145" y="463.9043"/><text fill="#000000" font-family="sans-serif" font-size="14" lengthAdjust="spacing" textLength="115" x="152" y="484.4395">Practitioner View</text><rect fill="#E2E2F0" height="30.4883" rx="2.5" ry="2.5" style="stroke:#181818;stroke-width:0.5;" width="180" x="503.5" y="50"/><text fill="#000000" font-family="sans-serif" font-size="14" lengthAdjust="spacing" textLength="166" x="510.5" y="70.5352">Shared Care FHIR Server</text><rect fill="#E2E2F0" height="30.4883" rx="2.5" ry="2.5" style="stroke:#181818;stroke-width:0.5;" width="180" x="503.5" y="463.9043"/><text fill="#000000" font-family="sans-serif" font-size="14" lengthAdjust="spacing" textLength="166" x="510.5" y="484.4395">Shared Care FHIR Server</text><rect fill="#E2E2F0" height="30.4883" rx="2.5" ry="2.5" style="stroke:#181818;stroke-width:0.5;" width="59" x="693.5" y="50"/><text fill="#000000" font-family="sans-serif" font-size="14" lengthAdjust="spacing" textLength="45" x="700.5" y="70.5352">Queue</text><rect fill="#E2E2F0" height="30.4883" rx="2.5" ry="2.5" style="stroke:#181818;stroke-width:0.5;" width="59" x="693.5" y="463.9043"/><text fill="#000000" font-family="sans-serif" font-size="14" lengthAdjust="spacing" textLength="45" x="700.5" y="484.4395">Queue</text><rect fill="#E2E2F0" height="30.4883" rx="2.5" ry="2.5" style="stroke:#181818;stroke-width:0.5;" width="206" x="762.5" y="50"/><text fill="#000000" font-family="sans-serif" font-size="14" lengthAdjust="spacing" textLength="192" x="769.5" y="70.5352">Common Messaging Service</text><rect fill="#E2E2F0" height="30.4883" rx="2.5" ry="2.5" style="stroke:#181818;stroke-width:0.5;" width="206" x="762.5" y="463.9043"/><text fill="#000000" font-family="sans-serif" font-size="14" lengthAdjust="spacing" textLength="192" x="769.5" y="484.4395">Common Messaging Service</text><text fill="#000000" font-family="sans-serif" font-size="14" lengthAdjust="spacing" textLength="47" x="978.5" y="78.5352">Patient</text><ellipse cx="1005" cy="13.5" fill="#E2E2F0" rx="8" ry="8" style="stroke:#181818;stroke-width:0.5;"/><path d="M1005,21.5 L1005,48.5 M992,29.5 L1018,29.5 M1005,48.5 L992,63.5 M1005,48.5 L1018,63.5 " fill="none" style="stroke:#181818;stroke-width:0.5;"/><text fill="#000000" font-family="sans-serif" font-size="14" lengthAdjust="spacing" textLength="47" x="978.5" y="477.4395">Patient</text><ellipse cx="1005" cy="488.8926" fill="#E2E2F0" rx="8" ry="8" style="stroke:#181818;stroke-width:0.5;"/><path d="M1005,496.8926 L1005,523.8926 M992,504.8926 L1018,504.8926 M1005,523.8926 L992,538.8926 M1005,523.8926 L1018,538.8926 " fill="none" style="stroke:#181818;stroke-width:0.5;"/><rect fill="#E2E2F0" height="30.4883" rx="2.5" ry="2.5" style="stroke:#181818;stroke-width:0.5;" width="101" x="1316.5" y="50"/><text fill="#000000" font-family="sans-serif" font-size="14" lengthAdjust="spacing" textLength="87" x="1323.5" y="70.5352">Alphero App</text><rect fill="#E2E2F0" height="30.4883" rx="2.5" ry="2.5" style="stroke:#181818;stroke-width:0.5;" width="101" x="1316.5" y="463.9043"/><text fill="#000000" font-family="sans-serif" font-size="14" lengthAdjust="spacing" textLength="87" x="1323.5" y="484.4395">Alphero App</text><rect fill="#E2E2F0" height="30.4883" rx="2.5" ry="2.5" style="stroke:#181818;stroke-width:0.5;" width="190" x="1464" y="50"/><text fill="#000000" font-family="sans-serif" font-size="14" lengthAdjust="spacing" textLength="176" x="1471" y="70.5352">Education Content Bucket</text><rect fill="#E2E2F0" height="30.4883" rx="2.5" ry="2.5" style="stroke:#181818;stroke-width:0.5;" width="190" x="1464" y="463.9043"/><text fill="#000000" font-family="sans-serif" font-size="14" lengthAdjust="spacing" textLength="176" x="1471" y="484.4395">Education Content Bucket</text><rect fill="#EEEEEE" height="3" style="stroke:#EEEEEE;stroke-width:1.0;" width="1659" x="0" y="112.1436"/><line style="stroke:#000000;stroke-width:1.0;" x1="0" x2="1659" y1="112.1436" y2="112.1436"/><line style="stroke:#000000;stroke-width:1.0;" x1="0" x2="1659" y1="115.1436" y2="115.1436"/><rect fill="#EEEEEE" height="23.3105" style="stroke:#000000;stroke-width:2.0;" width="151" x="754" y="101.4883"/><text fill="#000000" font-family="sans-serif" font-size="13" font-weight="bold" lengthAdjust="spacing" textLength="133" x="760" y="118.0566">Patient Onboarding</text><polygon fill="#181818" points="581.5,152.1094,591.5,156.1094,581.5,160.1094,585.5,156.1094" style="stroke:#181818;stroke-width:1.0;"/><line style="stroke:#181818;stroke-width:1.0;" x1="209.5" x2="587.5" y1="156.1094" y2="156.1094"/><text fill="#000000" font-family="sans-serif" font-size="13" lengthAdjust="spacing" textLength="360" x="216.5" y="151.3672">POST CarePlan and Associated resources (Including Task)</text><rect fill="#EEEEEE" height="3" style="stroke:#EEEEEE;stroke-width:1.0;" width="1659" x="0" y="184.7646"/><line style="stroke:#000000;stroke-width:1.0;" x1="0" x2="1659" y1="184.7646" y2="184.7646"/><line style="stroke:#000000;stroke-width:1.0;" x1="0" x2="1659" y1="187.7646" y2="187.7646"/><rect fill="#EEEEEE" height="23.3105" style="stroke:#000000;stroke-width:2.0;" width="248" x="705.5" y="174.1094"/><text fill="#000000" font-family="sans-serif" font-size="13" font-weight="bold" lengthAdjust="spacing" textLength="230" x="711.5" y="190.6777">Educational Content Consumption</text><polygon fill="#181818" points="1355,224.7305,1365,228.7305,1355,232.7305,1359,228.7305" style="stroke:#181818;stroke-width:1.0;"/><line style="stroke:#181818;stroke-width:1.0;" x1="1005" x2="1361" y1="228.7305" y2="228.7305"/><text fill="#000000" font-family="sans-serif" font-size="13" lengthAdjust="spacing" textLength="338" x="1012" y="223.9883">Opens App, Selects and Consumes Education Content</text><polygon fill="#181818" points="1547,254.041,1557,258.041,1547,262.041,1551,258.041" style="stroke:#181818;stroke-width:1.0;"/><line style="stroke:#181818;stroke-width:1.0;" x1="1367" x2="1553" y1="258.041" y2="258.041"/><text fill="#000000" font-family="sans-serif" font-size="13" lengthAdjust="spacing" textLength="168" x="1374" y="253.2988">Fetches Education Content</text><line style="stroke:#181818;stroke-width:1.0;" x1="1367" x2="1409" y1="287.3516" y2="287.3516"/><line style="stroke:#181818;stroke-width:1.0;" x1="1409" x2="1409" y1="287.3516" y2="300.3516"/><line style="stroke:#181818;stroke-width:1.0;" x1="1368" x2="1409" y1="300.3516" y2="300.3516"/><polygon fill="#181818" points="1378,296.3516,1368,300.3516,1378,304.3516,1374,300.3516" style="stroke:#181818;stroke-width:1.0;"/><text fill="#000000" font-family="sans-serif" font-size="13" lengthAdjust="spacing" textLength="97" x="1374" y="282.6094">Render Content</text><polygon fill="#181818" points="1355,325.6621,1365,329.6621,1355,333.6621,1359,329.6621" style="stroke:#181818;stroke-width:1.0;"/><line style="stroke:#181818;stroke-width:1.0;" x1="1005" x2="1361" y1="329.6621" y2="329.6621"/><text fill="#000000" font-family="sans-serif" font-size="13" lengthAdjust="spacing" textLength="117" x="1012" y="324.9199">Completes Module</text><polygon fill="#181818" points="604.5,354.9727,594.5,358.9727,604.5,362.9727,600.5,358.9727" style="stroke:#181818;stroke-width:1.0;"/><line style="stroke:#181818;stroke-width:1.0;" x1="598.5" x2="1366" y1="358.9727" y2="358.9727"/><text fill="#000000" font-family="sans-serif" font-size="13" lengthAdjust="spacing" textLength="318" x="610.5" y="354.2305">POST Provenance Resource (indicating completion)</text><polygon fill="#181818" points="604.5,384.2832,594.5,388.2832,604.5,392.2832,600.5,388.2832" style="stroke:#181818;stroke-width:1.0;"/><line style="stroke:#181818;stroke-width:1.0;" x1="598.5" x2="1366" y1="388.2832" y2="388.2832"/><text fill="#000000" font-family="sans-serif" font-size="13" lengthAdjust="spacing" textLength="247" x="610.5" y="383.541">PUT Task (add reference to Provenance)</text><polygon fill="#181818" points="1355,413.5938,1365,417.5938,1355,421.5938,1359,417.5938" style="stroke:#181818;stroke-width:1.0;"/><line style="stroke:#181818;stroke-width:1.0;" x1="1005" x2="1361" y1="417.5938" y2="417.5938"/><text fill="#000000" font-family="sans-serif" font-size="13" lengthAdjust="spacing" textLength="215" x="1012" y="412.8516">Complete Feedback Questionnaire</text><polygon fill="#181818" points="604.5,442.9043,594.5,446.9043,604.5,450.9043,600.5,446.9043" style="stroke:#181818;stroke-width:1.0;"/><line style="stroke:#181818;stroke-width:1.0;" x1="598.5" x2="1366" y1="446.9043" y2="446.9043"/><text fill="#000000" font-family="sans-serif" font-size="13" lengthAdjust="spacing" textLength="262" x="610.5" y="442.1621">POST QuestionnaireResponse (completed)</text><!--SRC=[VL9BRi8m4Dtd52DM8BKNg4GbYAZA8Y9yodwmfs0HnfRjqEjtx00YfUqcLkJtJr15ws6YJuPhZogQQ2oJBnpwQ9Hno146zpUmDVGr00nGR_kezG4zQIZb2M_lynMioP_9PsnwxwENBRMKxwfb_wQqfvDbg2W4t1lUPnsZEd1PhGlCcMkCXZZskPF67SXRc3YNuNBs0JFTAanDeBGSXG_JLXqfPlIid1R5U7oLXWNlB7gTCep7HRs5vzUksGlKY_KcLwqRP43MC0d1AeDH9l0KREiL1HZEMJLjLjXWE8wo_2q3DhSKSeRsv7Aov7L988PIGVmMZZZNUP8v6b8nPDEE9aOFlOh44xfq4leRHNNu3zQvh8YrVEBhtKCA-JIkeIX2bTLjGrVs_IYrjsTYP4KYr-q0GyFQ96FPGNKQac7qa_wnoIl147KQyPCy9PbexqH7VwUIbgHtg8uWFrT83ep6_ngo1v2OJdQKc9Tif4V5Dm00]--></g></svg>