<?xml version="1.0" encoding="us-ascii" standalone="no"?><svg xmlns="http://www.w3.org/2000/svg" xmlns:xlink="http://www.w3.org/1999/xlink" contentStyleType="text/css" height="968px" preserveAspectRatio="none" style="width:1545px;height:968px;background:#FFFFFF;" version="1.1" viewBox="0 0 1545 968" width="1545px" zoomAndPan="magnify"><defs/><g><line style="stroke:#181818;stroke-width:0.5;stroke-dasharray:5.0,5.0;" x1="70" x2="70" y1="81.4883" y2="887.9414"/><line style="stroke:#181818;stroke-width:0.5;stroke-dasharray:5.0,5.0;" x1="209" x2="209" y1="81.4883" y2="887.9414"/><line style="stroke:#181818;stroke-width:0.5;stroke-dasharray:5.0,5.0;" x1="634.5" x2="634.5" y1="81.4883" y2="887.9414"/><line style="stroke:#181818;stroke-width:0.5;stroke-dasharray:5.0,5.0;" x1="913" x2="913" y1="81.4883" y2="887.9414"/><line style="stroke:#181818;stroke-width:0.5;stroke-dasharray:5.0,5.0;" x1="1056" x2="1056" y1="81.4883" y2="887.9414"/><line style="stroke:#181818;stroke-width:0.5;stroke-dasharray:5.0,5.0;" x1="1195" x2="1195" y1="81.4883" y2="887.9414"/><line style="stroke:#181818;stroke-width:0.5;stroke-dasharray:5.0,5.0;" x1="1282" x2="1282" y1="81.4883" y2="887.9414"/><line style="stroke:#181818;stroke-width:0.5;stroke-dasharray:5.0,5.0;" x1="1438" x2="1438" y1="81.4883" y2="887.9414"/><text fill="#000000" font-family="sans-serif" font-size="14" lengthAdjust="spacing" textLength="124" x="5" y="78.5352">AdminPractitioner</text><ellipse cx="70" cy="13.5" fill="#E2E2F0" rx="8" ry="8" style="stroke:#181818;stroke-width:0.5;"/><path d="M70,21.5 L70,48.5 M57,29.5 L83,29.5 M70,48.5 L57,63.5 M70,48.5 L83,63.5 " fill="none" style="stroke:#181818;stroke-width:0.5;"/><text fill="#000000" font-family="sans-serif" font-size="14" lengthAdjust="spacing" textLength="124" x="5" y="900.4766">AdminPractitioner</text><ellipse cx="70" cy="911.9297" fill="#E2E2F0" rx="8" ry="8" style="stroke:#181818;stroke-width:0.5;"/><path d="M70,919.9297 L70,946.9297 M57,927.9297 L83,927.9297 M70,946.9297 L57,961.9297 M70,946.9297 L83,961.9297 " fill="none" style="stroke:#181818;stroke-width:0.5;"/><rect fill="#E2E2F0" height="30.4883" rx="2.5" ry="2.5" style="stroke:#181818;stroke-width:0.5;" width="129" x="145" y="50"/><text fill="#000000" font-family="sans-serif" font-size="14" lengthAdjust="spacing" textLength="115" x="152" y="70.5352">Practitioner View</text><rect fill="#E2E2F0" height="30.4883" rx="2.5" ry="2.5" style="stroke:#181818;stroke-width:0.5;" width="129" x="145" y="886.9414"/><text fill="#000000" font-family="sans-serif" font-size="14" lengthAdjust="spacing" textLength="115" x="152" y="907.4766">Practitioner View</text><rect fill="#E2E2F0" height="30.4883" rx="2.5" ry="2.5" style="stroke:#181818;stroke-width:0.5;" width="180" x="544.5" y="50"/><text fill="#000000" font-family="sans-serif" font-size="14" lengthAdjust="spacing" textLength="166" x="551.5" y="70.5352">Shared Care FHIR Server</text><rect fill="#E2E2F0" height="30.4883" rx="2.5" ry="2.5" style="stroke:#181818;stroke-width:0.5;" width="180" x="544.5" y="886.9414"/><text fill="#000000" font-family="sans-serif" font-size="14" lengthAdjust="spacing" textLength="166" x="551.5" y="907.4766">Shared Care FHIR Server</text><rect fill="#E2E2F0" height="30.4883" rx="2.5" ry="2.5" style="stroke:#181818;stroke-width:0.5;" width="59" x="884" y="50"/><text fill="#000000" font-family="sans-serif" font-size="14" lengthAdjust="spacing" textLength="45" x="891" y="70.5352">Queue</text><rect fill="#E2E2F0" height="30.4883" rx="2.5" ry="2.5" style="stroke:#181818;stroke-width:0.5;" width="59" x="884" y="886.9414"/><text fill="#000000" font-family="sans-serif" font-size="14" lengthAdjust="spacing" textLength="45" x="891" y="907.4766">Queue</text><rect fill="#E2E2F0" height="30.4883" rx="2.5" ry="2.5" style="stroke:#181818;stroke-width:0.5;" width="206" x="953" y="50"/><text fill="#000000" font-family="sans-serif" font-size="14" lengthAdjust="spacing" textLength="192" x="960" y="70.5352">Common Messaging Service</text><rect fill="#E2E2F0" height="30.4883" rx="2.5" ry="2.5" style="stroke:#181818;stroke-width:0.5;" width="206" x="953" y="886.9414"/><text fill="#000000" font-family="sans-serif" font-size="14" lengthAdjust="spacing" textLength="192" x="960" y="907.4766">Common Messaging Service</text><text fill="#000000" font-family="sans-serif" font-size="14" lengthAdjust="spacing" textLength="47" x="1169" y="78.5352">Patient</text><ellipse cx="1195.5" cy="13.5" fill="#E2E2F0" rx="8" ry="8" style="stroke:#181818;stroke-width:0.5;"/><path d="M1195.5,21.5 L1195.5,48.5 M1182.5,29.5 L1208.5,29.5 M1195.5,48.5 L1182.5,63.5 M1195.5,48.5 L1208.5,63.5 " fill="none" style="stroke:#181818;stroke-width:0.5;"/><text fill="#000000" font-family="sans-serif" font-size="14" lengthAdjust="spacing" textLength="47" x="1169" y="900.4766">Patient</text><ellipse cx="1195.5" cy="911.9297" fill="#E2E2F0" rx="8" ry="8" style="stroke:#181818;stroke-width:0.5;"/><path d="M1195.5,919.9297 L1195.5,946.9297 M1182.5,927.9297 L1208.5,927.9297 M1195.5,946.9297 L1182.5,961.9297 M1195.5,946.9297 L1208.5,961.9297 " fill="none" style="stroke:#181818;stroke-width:0.5;"/><rect fill="#E2E2F0" height="30.4883" rx="2.5" ry="2.5" style="stroke:#181818;stroke-width:0.5;" width="101" x="1232" y="50"/><text fill="#000000" font-family="sans-serif" font-size="14" lengthAdjust="spacing" textLength="87" x="1239" y="70.5352">Alphero App</text><rect fill="#E2E2F0" height="30.4883" rx="2.5" ry="2.5" style="stroke:#181818;stroke-width:0.5;" width="101" x="1232" y="886.9414"/><text fill="#000000" font-family="sans-serif" font-size="14" lengthAdjust="spacing" textLength="87" x="1239" y="907.4766">Alphero App</text><rect fill="#E2E2F0" height="30.4883" rx="2.5" ry="2.5" style="stroke:#181818;stroke-width:0.5;" width="190" x="1343" y="50"/><text fill="#000000" font-family="sans-serif" font-size="14" lengthAdjust="spacing" textLength="176" x="1350" y="70.5352">Education Content Bucket</text><rect fill="#E2E2F0" height="30.4883" rx="2.5" ry="2.5" style="stroke:#181818;stroke-width:0.5;" width="190" x="1343" y="886.9414"/><text fill="#000000" font-family="sans-serif" font-size="14" lengthAdjust="spacing" textLength="176" x="1350" y="907.4766">Education Content Bucket</text><rect fill="#EEEEEE" height="3" style="stroke:#EEEEEE;stroke-width:1.0;" width="1538" x="0" y="112.1436"/><line style="stroke:#000000;stroke-width:1.0;" x1="0" x2="1538" y1="112.1436" y2="112.1436"/><line style="stroke:#000000;stroke-width:1.0;" x1="0" x2="1538" y1="115.1436" y2="115.1436"/><rect fill="#EEEEEE" height="23.3105" style="stroke:#000000;stroke-width:2.0;" width="151" x="693.5" y="101.4883"/><text fill="#000000" font-family="sans-serif" font-size="13" font-weight="bold" lengthAdjust="spacing" textLength="133" x="699.5" y="118.0566">Patient Onboarding</text><rect fill="#EEEEEE" height="3" style="stroke:#EEEEEE;stroke-width:1.0;" width="1538" x="0" y="155.4541"/><line style="stroke:#000000;stroke-width:1.0;" x1="0" x2="1538" y1="155.4541" y2="155.4541"/><line style="stroke:#000000;stroke-width:1.0;" x1="0" x2="1538" y1="158.4541" y2="158.4541"/><rect fill="#EEEEEE" height="23.3105" style="stroke:#000000;stroke-width:2.0;" width="125" x="706.5" y="144.7988"/><text fill="#000000" font-family="sans-serif" font-size="13" font-weight="bold" lengthAdjust="spacing" textLength="107" x="712.5" y="161.3672">Inital Encounter</text><polygon fill="#181818" points="622.5,195.4199,632.5,199.4199,622.5,203.4199,626.5,199.4199" style="stroke:#181818;stroke-width:1.0;"/><line style="stroke:#181818;stroke-width:1.0;" x1="209.5" x2="628.5" y1="199.4199" y2="199.4199"/><text fill="#000000" font-family="sans-serif" font-size="13" lengthAdjust="spacing" textLength="98" x="216.5" y="194.6777">POST Condition</text><polygon fill="#181818" points="622.5,224.7305,632.5,228.7305,622.5,232.7305,626.5,228.7305" style="stroke:#181818;stroke-width:1.0;"/><line style="stroke:#181818;stroke-width:1.0;" x1="209.5" x2="628.5" y1="228.7305" y2="228.7305"/><text fill="#000000" font-family="sans-serif" font-size="13" lengthAdjust="spacing" textLength="99" x="216.5" y="223.9883">POST Encounter</text><polygon fill="#181818" points="622.5,254.041,632.5,258.041,622.5,262.041,626.5,258.041" style="stroke:#181818;stroke-width:1.0;"/><line style="stroke:#181818;stroke-width:1.0;" x1="209.5" x2="628.5" y1="258.041" y2="258.041"/><text fill="#000000" font-family="sans-serif" font-size="13" lengthAdjust="spacing" textLength="98" x="216.5" y="253.2988">POST CareTeam</text><polygon fill="#181818" points="622.5,283.3516,632.5,287.3516,622.5,291.3516,626.5,287.3516" style="stroke:#181818;stroke-width:1.0;"/><line style="stroke:#181818;stroke-width:1.0;" x1="209.5" x2="628.5" y1="287.3516" y2="287.3516"/><text fill="#000000" font-family="sans-serif" font-size="13" lengthAdjust="spacing" textLength="66" x="216.5" y="282.6094">POST Task</text><polygon fill="#181818" points="622.5,312.6621,632.5,316.6621,622.5,320.6621,626.5,316.6621" style="stroke:#181818;stroke-width:1.0;"/><line style="stroke:#181818;stroke-width:1.0;" x1="209.5" x2="628.5" y1="316.6621" y2="316.6621"/><text fill="#000000" font-family="sans-serif" font-size="13" lengthAdjust="spacing" textLength="88" x="216.5" y="311.9199">POST Consent</text><rect fill="#EEEEEE" height="3" style="stroke:#EEEEEE;stroke-width:1.0;" width="1538" x="0" y="345.3174"/><line style="stroke:#000000;stroke-width:1.0;" x1="0" x2="1538" y1="345.3174" y2="345.3174"/><line style="stroke:#000000;stroke-width:1.0;" x1="0" x2="1538" y1="348.3174" y2="348.3174"/><rect fill="#EEEEEE" height="23.3105" style="stroke:#000000;stroke-width:2.0;" width="126" x="706" y="334.6621"/><text fill="#000000" font-family="sans-serif" font-size="13" font-weight="bold" lengthAdjust="spacing" textLength="108" x="712" y="351.2305">Create CarePlan</text><polygon fill="#181818" points="622.5,385.2832,632.5,389.2832,622.5,393.2832,626.5,389.2832" style="stroke:#181818;stroke-width:1.0;"/><line style="stroke:#181818;stroke-width:1.0;" x1="209.5" x2="628.5" y1="389.2832" y2="389.2832"/><text fill="#000000" font-family="sans-serif" font-size="13" lengthAdjust="spacing" textLength="145" x="216.5" y="384.541">Search Plan Definitions</text><polygon fill="#181818" points="622.5,414.5938,632.5,418.5938,622.5,422.5938,626.5,418.5938" style="stroke:#181818;stroke-width:1.0;"/><line style="stroke:#181818;stroke-width:1.0;" x1="209.5" x2="628.5" y1="418.5938" y2="418.5938"/><text fill="#000000" font-family="sans-serif" font-size="13" lengthAdjust="spacing" textLength="395" x="216.5" y="413.8516">Apply Plan Definition, with patient, practitioner, and encounter</text><polygon fill="#181818" points="622.5,443.9043,632.5,447.9043,622.5,451.9043,626.5,447.9043" style="stroke:#181818;stroke-width:1.0;"/><line style="stroke:#181818;stroke-width:1.0;" x1="209.5" x2="628.5" y1="447.9043" y2="447.9043"/><text fill="#000000" font-family="sans-serif" font-size="13" lengthAdjust="spacing" textLength="90" x="216.5" y="443.1621">POST CarePlan</text><polygon fill="#181818" points="622.5,473.2148,632.5,477.2148,622.5,481.2148,626.5,477.2148" style="stroke:#181818;stroke-width:1.0;"/><line style="stroke:#181818;stroke-width:1.0;" x1="209.5" x2="628.5" y1="477.2148" y2="477.2148"/><text fill="#000000" font-family="sans-serif" font-size="13" lengthAdjust="spacing" textLength="205" x="216.5" y="472.4727">PUT Consent, attaching CarePlan</text><rect fill="#EEEEEE" height="3" style="stroke:#EEEEEE;stroke-width:1.0;" width="1538" x="0" y="505.8701"/><line style="stroke:#000000;stroke-width:1.0;" x1="0" x2="1538" y1="505.8701" y2="505.8701"/><line style="stroke:#000000;stroke-width:1.0;" x1="0" x2="1538" y1="508.8701" y2="508.8701"/><rect fill="#EEEEEE" height="23.3105" style="stroke:#000000;stroke-width:2.0;" width="164" x="687" y="495.2148"/><text fill="#000000" font-family="sans-serif" font-size="13" font-weight="bold" lengthAdjust="spacing" textLength="146" x="693" y="511.7832">Add Service Requests</text><polygon fill="#181818" points="622.5,545.8359,632.5,549.8359,622.5,553.8359,626.5,549.8359" style="stroke:#181818;stroke-width:1.0;"/><line style="stroke:#181818;stroke-width:1.0;" x1="209.5" x2="628.5" y1="549.8359" y2="549.8359"/><text fill="#000000" font-family="sans-serif" font-size="13" lengthAdjust="spacing" textLength="167" x="216.5" y="545.0938">Search Activity Definitions</text><polygon fill="#181818" points="622.5,575.1465,632.5,579.1465,622.5,583.1465,626.5,579.1465" style="stroke:#181818;stroke-width:1.0;"/><line style="stroke:#181818;stroke-width:1.0;" x1="209.5" x2="628.5" y1="579.1465" y2="579.1465"/><text fill="#000000" font-family="sans-serif" font-size="13" lengthAdjust="spacing" textLength="401" x="216.5" y="574.4043">Apply Action Definition, with patient, practitioner, and CarePlan</text><polygon fill="#181818" points="622.5,604.457,632.5,608.457,622.5,612.457,626.5,608.457" style="stroke:#181818;stroke-width:1.0;"/><line style="stroke:#181818;stroke-width:1.0;" x1="209.5" x2="628.5" y1="608.457" y2="608.457"/><text fill="#000000" font-family="sans-serif" font-size="13" lengthAdjust="spacing" textLength="134" x="216.5" y="603.7148">POST Service Request</text><polygon fill="#181818" points="622.5,633.7676,632.5,637.7676,622.5,641.7676,626.5,637.7676" style="stroke:#181818;stroke-width:1.0;"/><line style="stroke:#181818;stroke-width:1.0;" x1="209.5" x2="628.5" y1="637.7676" y2="637.7676"/><text fill="#000000" font-family="sans-serif" font-size="13" lengthAdjust="spacing" textLength="249" x="216.5" y="633.0254">PUT Consent, attaching Service Request</text><polygon fill="#181818" points="622.5,663.0781,632.5,667.0781,622.5,671.0781,626.5,667.0781" style="stroke:#181818;stroke-width:1.0;"/><line style="stroke:#181818;stroke-width:1.0;" x1="209.5" x2="628.5" y1="667.0781" y2="667.0781"/><text fill="#000000" font-family="sans-serif" font-size="13" lengthAdjust="spacing" textLength="251" x="216.5" y="662.3359">PUT CarePlan, attaching Service Request</text><rect fill="#EEEEEE" height="3" style="stroke:#EEEEEE;stroke-width:1.0;" width="1538" x="0" y="695.7334"/><line style="stroke:#000000;stroke-width:1.0;" x1="0" x2="1538" y1="695.7334" y2="695.7334"/><line style="stroke:#000000;stroke-width:1.0;" x1="0" x2="1538" y1="698.7334" y2="698.7334"/><rect fill="#EEEEEE" height="23.3105" style="stroke:#000000;stroke-width:2.0;" width="202" x="668" y="685.0781"/><text fill="#000000" font-family="sans-serif" font-size="13" font-weight="bold" lengthAdjust="spacing" textLength="184" x="674" y="701.6465">Patient Notification via CMS</text><polygon fill="#181818" points="622.5,735.6992,632.5,739.6992,622.5,743.6992,626.5,739.6992" style="stroke:#181818;stroke-width:1.0;"/><line style="stroke:#181818;stroke-width:1.0;" x1="209.5" x2="628.5" y1="739.6992" y2="739.6992"/><text fill="#000000" font-family="sans-serif" font-size="13" lengthAdjust="spacing" textLength="186" x="216.5" y="734.957">POST CommunicationRequest</text><line style="stroke:#181818;stroke-width:1.0;" x1="634.5" x2="676.5" y1="769.0098" y2="769.0098"/><line style="stroke:#181818;stroke-width:1.0;" x1="676.5" x2="676.5" y1="769.0098" y2="782.0098"/><line style="stroke:#181818;stroke-width:1.0;" x1="635.5" x2="676.5" y1="782.0098" y2="782.0098"/><polygon fill="#181818" points="645.5,778.0098,635.5,782.0098,645.5,786.0098,641.5,782.0098" style="stroke:#181818;stroke-width:1.0;"/><text fill="#000000" font-family="sans-serif" font-size="13" lengthAdjust="spacing" textLength="265" x="641.5" y="764.2676">Handle incoming Communication Request</text><polygon fill="#181818" points="1044,807.3203,1054,811.3203,1044,815.3203,1048,811.3203" style="stroke:#181818;stroke-width:1.0;"/><line style="stroke:#181818;stroke-width:1.0;" x1="634.5" x2="1050" y1="811.3203" y2="811.3203"/><text fill="#000000" font-family="sans-serif" font-size="13" lengthAdjust="spacing" textLength="299" x="641.5" y="806.5781">POST CommunicationRequest (via Subscription)</text><polygon fill="#181818" points="1183.5,836.6309,1193.5,840.6309,1183.5,844.6309,1187.5,840.6309" style="stroke:#181818;stroke-width:1.0;"/><line style="stroke:#181818;stroke-width:1.0;" x1="1056" x2="1189.5" y1="840.6309" y2="840.6309"/><text fill="#000000" font-family="sans-serif" font-size="13" lengthAdjust="spacing" textLength="68" x="1063" y="835.8887">Send Email</text><polygon fill="#181818" points="645.5,865.9414,635.5,869.9414,645.5,873.9414,641.5,869.9414" style="stroke:#181818;stroke-width:1.0;"/><line style="stroke:#181818;stroke-width:1.0;" x1="639.5" x2="1055" y1="869.9414" y2="869.9414"/><text fill="#000000" font-family="sans-serif" font-size="13" lengthAdjust="spacing" textLength="280" x="651.5" y="865.1992">POST Communication (inidcating email sent)</text><!--SRC=[bLFBRjim4BphAnOv9O3x0mKSG55T90SdIkJwlY4tqI8IgPAKW_nzkRJbMeuSjnUzPcOvixj25Qo3NBTiIeSgS61ho6KTki2AEpG1BWuHM3EzNm1wADTZLbMZ8mr5lCBFsxidgCXjo2Mkl8_PZptrbB3bunWfRDjQ0qlo7b_PlAOwhBRaObbbc3oN69XC66lpfgl9MSYxBj7ZVKnOw5wX9872cX3rSDEhDmg9lIXkicm-7qh3WtcswBHucCyJScSuO0CBesmVvKw-bsluThrD_1tAXsebfNLg5qo0U-sKCFPkHTXEG2lqRzD7UUb2SbSuma2fIjcW-MIk8dIgXeJze1SsoQGVasBBcezZpWpUETJGRHipW-vW8sQ0HWETYIK5Zw1VU_knH0YeQkdqdYo9Sgs7ySCJ_Ux91tygLXuTRJXyd8icFFj_uKu4a6n7xlufuddDxholHADDlRU1NtYtsHj6-K_IpavjJDlsPiSTYYN2N-9j3DqGS9nfcsPog85ZaPprHN6u54DL_-oLuqw0gqmaKJdObnd6DYzQv6R0Jdg6opWtBS_H6Oa4fC5NsHy0]--></g></svg>