<?xml version="1.0" encoding="us-ascii" standalone="no"?><svg xmlns="http://www.w3.org/2000/svg" xmlns:xlink="http://www.w3.org/1999/xlink" contentStyleType="text/css" height="647px" preserveAspectRatio="none" style="width:1822px;height:647px;background:#FFFFFF;" version="1.1" viewBox="0 0 1822 647" width="1822px" zoomAndPan="magnify"><defs/><g><line style="stroke:#181818;stroke-width:0.5;stroke-dasharray:5.0,5.0;" x1="70" x2="70" y1="81.4883" y2="566.8359"/><line style="stroke:#181818;stroke-width:0.5;stroke-dasharray:5.0,5.0;" x1="209" x2="209" y1="81.4883" y2="566.8359"/><line style="stroke:#181818;stroke-width:0.5;stroke-dasharray:5.0,5.0;" x1="749.5" x2="749.5" y1="81.4883" y2="566.8359"/><line style="stroke:#181818;stroke-width:0.5;stroke-dasharray:5.0,5.0;" x1="878.5" x2="878.5" y1="81.4883" y2="566.8359"/><line style="stroke:#181818;stroke-width:0.5;stroke-dasharray:5.0,5.0;" x1="1021.5" x2="1021.5" y1="81.4883" y2="566.8359"/><line style="stroke:#181818;stroke-width:0.5;stroke-dasharray:5.0,5.0;" x1="1160.5" x2="1160.5" y1="81.4883" y2="566.8359"/><line style="stroke:#181818;stroke-width:0.5;stroke-dasharray:5.0,5.0;" x1="1522.5" x2="1522.5" y1="81.4883" y2="566.8359"/><line style="stroke:#181818;stroke-width:0.5;stroke-dasharray:5.0,5.0;" x1="1715" x2="1715" y1="81.4883" y2="566.8359"/><text fill="#000000" font-family="sans-serif" font-size="14" lengthAdjust="spacing" textLength="124" x="5" y="78.5352">AdminPractitioner</text><ellipse cx="70" cy="13.5" fill="#E2E2F0" rx="8" ry="8" style="stroke:#181818;stroke-width:0.5;"/><path d="M70,21.5 L70,48.5 M57,29.5 L83,29.5 M70,48.5 L57,63.5 M70,48.5 L83,63.5 " fill="none" style="stroke:#181818;stroke-width:0.5;"/><text fill="#000000" font-family="sans-serif" font-size="14" lengthAdjust="spacing" textLength="124" x="5" y="579.3711">AdminPractitioner</text><ellipse cx="70" cy="590.8242" fill="#E2E2F0" rx="8" ry="8" style="stroke:#181818;stroke-width:0.5;"/><path d="M70,598.8242 L70,625.8242 M57,606.8242 L83,606.8242 M70,625.8242 L57,640.8242 M70,625.8242 L83,640.8242 " fill="none" style="stroke:#181818;stroke-width:0.5;"/><rect fill="#E2E2F0" height="30.4883" rx="2.5" ry="2.5" style="stroke:#181818;stroke-width:0.5;" width="129" x="145" y="50"/><text fill="#000000" font-family="sans-serif" font-size="14" lengthAdjust="spacing" textLength="115" x="152" y="70.5352">Practitioner View</text><rect fill="#E2E2F0" height="30.4883" rx="2.5" ry="2.5" style="stroke:#181818;stroke-width:0.5;" width="129" x="145" y="565.8359"/><text fill="#000000" font-family="sans-serif" font-size="14" lengthAdjust="spacing" textLength="115" x="152" y="586.3711">Practitioner View</text><rect fill="#E2E2F0" height="30.4883" rx="2.5" ry="2.5" style="stroke:#181818;stroke-width:0.5;" width="180" x="659.5" y="50"/><text fill="#000000" font-family="sans-serif" font-size="14" lengthAdjust="spacing" textLength="166" x="666.5" y="70.5352">Shared Care FHIR Server</text><rect fill="#E2E2F0" height="30.4883" rx="2.5" ry="2.5" style="stroke:#181818;stroke-width:0.5;" width="180" x="659.5" y="565.8359"/><text fill="#000000" font-family="sans-serif" font-size="14" lengthAdjust="spacing" textLength="166" x="666.5" y="586.3711">Shared Care FHIR Server</text><rect fill="#E2E2F0" height="30.4883" rx="2.5" ry="2.5" style="stroke:#181818;stroke-width:0.5;" width="59" x="849.5" y="50"/><text fill="#000000" font-family="sans-serif" font-size="14" lengthAdjust="spacing" textLength="45" x="856.5" y="70.5352">Queue</text><rect fill="#E2E2F0" height="30.4883" rx="2.5" ry="2.5" style="stroke:#181818;stroke-width:0.5;" width="59" x="849.5" y="565.8359"/><text fill="#000000" font-family="sans-serif" font-size="14" lengthAdjust="spacing" textLength="45" x="856.5" y="586.3711">Queue</text><rect fill="#E2E2F0" height="30.4883" rx="2.5" ry="2.5" style="stroke:#181818;stroke-width:0.5;" width="206" x="918.5" y="50"/><text fill="#000000" font-family="sans-serif" font-size="14" lengthAdjust="spacing" textLength="192" x="925.5" y="70.5352">Common Messaging Service</text><rect fill="#E2E2F0" height="30.4883" rx="2.5" ry="2.5" style="stroke:#181818;stroke-width:0.5;" width="206" x="918.5" y="565.8359"/><text fill="#000000" font-family="sans-serif" font-size="14" lengthAdjust="spacing" textLength="192" x="925.5" y="586.3711">Common Messaging Service</text><text fill="#000000" font-family="sans-serif" font-size="14" lengthAdjust="spacing" textLength="47" x="1134.5" y="78.5352">Patient</text><ellipse cx="1161" cy="13.5" fill="#E2E2F0" rx="8" ry="8" style="stroke:#181818;stroke-width:0.5;"/><path d="M1161,21.5 L1161,48.5 M1148,29.5 L1174,29.5 M1161,48.5 L1148,63.5 M1161,48.5 L1174,63.5 " fill="none" style="stroke:#181818;stroke-width:0.5;"/><text fill="#000000" font-family="sans-serif" font-size="14" lengthAdjust="spacing" textLength="47" x="1134.5" y="579.3711">Patient</text><ellipse cx="1161" cy="590.8242" fill="#E2E2F0" rx="8" ry="8" style="stroke:#181818;stroke-width:0.5;"/><path d="M1161,598.8242 L1161,625.8242 M1148,606.8242 L1174,606.8242 M1161,625.8242 L1148,640.8242 M1161,625.8242 L1174,640.8242 " fill="none" style="stroke:#181818;stroke-width:0.5;"/><rect fill="#E2E2F0" height="30.4883" rx="2.5" ry="2.5" style="stroke:#181818;stroke-width:0.5;" width="101" x="1472.5" y="50"/><text fill="#000000" font-family="sans-serif" font-size="14" lengthAdjust="spacing" textLength="87" x="1479.5" y="70.5352">Alphero App</text><rect fill="#E2E2F0" height="30.4883" rx="2.5" ry="2.5" style="stroke:#181818;stroke-width:0.5;" width="101" x="1472.5" y="565.8359"/><text fill="#000000" font-family="sans-serif" font-size="14" lengthAdjust="spacing" textLength="87" x="1479.5" y="586.3711">Alphero App</text><rect fill="#E2E2F0" height="30.4883" rx="2.5" ry="2.5" style="stroke:#181818;stroke-width:0.5;" width="190" x="1620" y="50"/><text fill="#000000" font-family="sans-serif" font-size="14" lengthAdjust="spacing" textLength="176" x="1627" y="70.5352">Education Content Bucket</text><rect fill="#E2E2F0" height="30.4883" rx="2.5" ry="2.5" style="stroke:#181818;stroke-width:0.5;" width="190" x="1620" y="565.8359"/><text fill="#000000" font-family="sans-serif" font-size="14" lengthAdjust="spacing" textLength="176" x="1627" y="586.3711">Education Content Bucket</text><rect fill="#EEEEEE" height="3" style="stroke:#EEEEEE;stroke-width:1.0;" width="1815" x="0" y="112.1436"/><line style="stroke:#000000;stroke-width:1.0;" x1="0" x2="1815" y1="112.1436" y2="112.1436"/><line style="stroke:#000000;stroke-width:1.0;" x1="0" x2="1815" y1="115.1436" y2="115.1436"/><rect fill="#EEEEEE" height="23.3105" style="stroke:#000000;stroke-width:2.0;" width="151" x="832" y="101.4883"/><text fill="#000000" font-family="sans-serif" font-size="13" font-weight="bold" lengthAdjust="spacing" textLength="133" x="838" y="118.0566">Patient Onboarding</text><polygon fill="#181818" points="737.5,152.1094,747.5,156.1094,737.5,160.1094,741.5,156.1094" style="stroke:#181818;stroke-width:1.0;"/><line style="stroke:#181818;stroke-width:1.0;" x1="209.5" x2="743.5" y1="156.1094" y2="156.1094"/><text fill="#000000" font-family="sans-serif" font-size="13" lengthAdjust="spacing" textLength="360" x="216.5" y="151.3672">POST CarePlan and Associated resources (Including Task)</text><rect fill="#EEEEEE" height="3" style="stroke:#EEEEEE;stroke-width:1.0;" width="1815" x="0" y="184.7646"/><line style="stroke:#000000;stroke-width:1.0;" x1="0" x2="1815" y1="184.7646" y2="184.7646"/><line style="stroke:#000000;stroke-width:1.0;" x1="0" x2="1815" y1="187.7646" y2="187.7646"/><rect fill="#EEEEEE" height="23.3105" style="stroke:#000000;stroke-width:2.0;" width="248" x="783.5" y="174.1094"/><text fill="#000000" font-family="sans-serif" font-size="13" font-weight="bold" lengthAdjust="spacing" textLength="230" x="789.5" y="190.6777">Educational Content Consumption</text><polygon fill="#181818" points="1511,224.7305,1521,228.7305,1511,232.7305,1515,228.7305" style="stroke:#181818;stroke-width:1.0;"/><line style="stroke:#181818;stroke-width:1.0;" x1="1161" x2="1517" y1="228.7305" y2="228.7305"/><text fill="#000000" font-family="sans-serif" font-size="13" lengthAdjust="spacing" textLength="338" x="1168" y="223.9883">Opens App, Selects and Consumes Education Content</text><polygon fill="#181818" points="1703,254.041,1713,258.041,1703,262.041,1707,258.041" style="stroke:#181818;stroke-width:1.0;"/><line style="stroke:#181818;stroke-width:1.0;" x1="1523" x2="1709" y1="258.041" y2="258.041"/><text fill="#000000" font-family="sans-serif" font-size="13" lengthAdjust="spacing" textLength="168" x="1530" y="253.2988">Fetches Education Content</text><line style="stroke:#181818;stroke-width:1.0;" x1="1523" x2="1565" y1="287.3516" y2="287.3516"/><line style="stroke:#181818;stroke-width:1.0;" x1="1565" x2="1565" y1="287.3516" y2="300.3516"/><line style="stroke:#181818;stroke-width:1.0;" x1="1524" x2="1565" y1="300.3516" y2="300.3516"/><polygon fill="#181818" points="1534,296.3516,1524,300.3516,1534,304.3516,1530,300.3516" style="stroke:#181818;stroke-width:1.0;"/><text fill="#000000" font-family="sans-serif" font-size="13" lengthAdjust="spacing" textLength="97" x="1530" y="282.6094">Render Content</text><polygon fill="#181818" points="1511,325.6621,1521,329.6621,1511,333.6621,1515,329.6621" style="stroke:#181818;stroke-width:1.0;"/><line style="stroke:#181818;stroke-width:1.0;" x1="1161" x2="1517" y1="329.6621" y2="329.6621"/><text fill="#000000" font-family="sans-serif" font-size="13" lengthAdjust="spacing" textLength="117" x="1168" y="324.9199">Completes Module</text><polygon fill="#181818" points="760.5,354.9727,750.5,358.9727,760.5,362.9727,756.5,358.9727" style="stroke:#181818;stroke-width:1.0;"/><line style="stroke:#181818;stroke-width:1.0;" x1="754.5" x2="1522" y1="358.9727" y2="358.9727"/><text fill="#000000" font-family="sans-serif" font-size="13" lengthAdjust="spacing" textLength="318" x="766.5" y="354.2305">POST Provenance Resource (indicating completion)</text><polygon fill="#181818" points="760.5,384.2832,750.5,388.2832,760.5,392.2832,756.5,388.2832" style="stroke:#181818;stroke-width:1.0;"/><line style="stroke:#181818;stroke-width:1.0;" x1="754.5" x2="1522" y1="388.2832" y2="388.2832"/><text fill="#000000" font-family="sans-serif" font-size="13" lengthAdjust="spacing" textLength="247" x="766.5" y="383.541">PUT Task (add reference to Provenance)</text><polygon fill="#181818" points="1511,413.5938,1521,417.5938,1511,421.5938,1515,417.5938" style="stroke:#181818;stroke-width:1.0;"/><line style="stroke:#181818;stroke-width:1.0;" x1="1161" x2="1517" y1="417.5938" y2="417.5938"/><text fill="#000000" font-family="sans-serif" font-size="13" lengthAdjust="spacing" textLength="215" x="1168" y="412.8516">Complete Feedback Questionnaire</text><polygon fill="#181818" points="760.5,442.9043,750.5,446.9043,760.5,450.9043,756.5,446.9043" style="stroke:#181818;stroke-width:1.0;"/><line style="stroke:#181818;stroke-width:1.0;" x1="754.5" x2="1522" y1="446.9043" y2="446.9043"/><text fill="#000000" font-family="sans-serif" font-size="13" lengthAdjust="spacing" textLength="262" x="766.5" y="442.1621">POST QuestionnaireResponse (completed)</text><rect fill="#EEEEEE" height="3" style="stroke:#EEEEEE;stroke-width:1.0;" width="1815" x="0" y="475.5596"/><line style="stroke:#000000;stroke-width:1.0;" x1="0" x2="1815" y1="475.5596" y2="475.5596"/><line style="stroke:#000000;stroke-width:1.0;" x1="0" x2="1815" y1="478.5596" y2="478.5596"/><rect fill="#EEEEEE" height="23.3105" style="stroke:#000000;stroke-width:2.0;" width="186" x="814.5" y="464.9043"/><text fill="#000000" font-family="sans-serif" font-size="13" font-weight="bold" lengthAdjust="spacing" textLength="168" x="820.5" y="481.4727">Provider View Rendering</text><polygon fill="#181818" points="737.5,515.5254,747.5,519.5254,737.5,523.5254,741.5,519.5254" style="stroke:#181818;stroke-width:1.0;"/><line style="stroke:#181818;stroke-width:1.0;" x1="209.5" x2="743.5" y1="519.5254" y2="519.5254"/><text fill="#000000" font-family="sans-serif" font-size="13" lengthAdjust="spacing" textLength="83" x="216.5" y="514.7832">GET Careplan</text><polygon fill="#181818" points="737.5,544.8359,747.5,548.8359,737.5,552.8359,741.5,548.8359" style="stroke:#181818;stroke-width:1.0;"/><line style="stroke:#181818;stroke-width:1.0;" x1="209.5" x2="743.5" y1="548.8359" y2="548.8359"/><text fill="#000000" font-family="sans-serif" font-size="13" lengthAdjust="spacing" textLength="516" x="216.5" y="544.0938">GET Provenance?basedOn=Careplan/example&amp;subject=nhi&amp;profile=rpmEducation</text><!--SRC=[VL9DRzim3BtxLn0z50dGOVS1tf0QwTP34BV9ScSajj5YKu8-kltyKNAInatRYmM3Z-yzFX9Lj1vckZVSUbJHH6EPVENGHwECGuvmTLw1ZQ6_Lu01siqOjTgX9msDVE7kr_qZhCY_a2_O_3z6FoHAL6gBXt6biNrl6HOK0ZuRVYuyHWtWPh6gi7XkCHhYEEwTTMv7tiBCkGANTmoOwwGmJmADvIZzS9lKdc91pvlRgghh8pKiUMlHw-oXhgjs0r- -3vDzWtQvMfTHsmuPa3NCGh3AO9G8F0MRlA80atjMNIeCQmpxQQ4_US3kv4BUa7fNd6MjWmCHb154R-c8opWt4aT7AeOYEhI9qCLSLUwJTfb9skyegjrdi47baLZBYe-r2nUo6jTH5AA5rQcZO_TvAAstByJ8YeHko04cXhN9mfA36ZZ4m_Hj- -zrIGacg7E8J-GfqqHxHZhzs9LCINgBQWzoN24hC1h_hiaHG6mwoL5i7hoH7XQLLOq-tFmXdFUEuUTyk0Kdjt1PUVN-Ouk1z9Bh8_Wh_SEiU1tIzeyijUQTkNRUFfcEQk_wqxggwZy0]--></g></svg>