<?xml version="1.0" encoding="us-ascii" standalone="no"?><svg xmlns="http://www.w3.org/2000/svg" xmlns:xlink="http://www.w3.org/1999/xlink" contentStyleType="text/css" height="765px" preserveAspectRatio="none" style="width:1701px;height:765px;background:#FFFFFF;" version="1.1" viewBox="0 0 1701 765" width="1701px" zoomAndPan="magnify"><defs/><g><line style="stroke:#181818;stroke-width:0.5;stroke-dasharray:5.0,5.0;" x1="69" x2="69" y1="81.4883" y2="684.0781"/><line style="stroke:#181818;stroke-width:0.5;stroke-dasharray:5.0,5.0;" x1="590.5" x2="590.5" y1="81.4883" y2="684.0781"/><line style="stroke:#181818;stroke-width:0.5;stroke-dasharray:5.0,5.0;" x1="1100.5" x2="1100.5" y1="81.4883" y2="684.0781"/><line style="stroke:#181818;stroke-width:0.5;stroke-dasharray:5.0,5.0;" x1="1462" x2="1462" y1="81.4883" y2="684.0781"/><line style="stroke:#181818;stroke-width:0.5;stroke-dasharray:5.0,5.0;" x1="1594" x2="1594" y1="81.4883" y2="684.0781"/><rect fill="#E2E2F0" height="30.4883" rx="2.5" ry="2.5" style="stroke:#181818;stroke-width:0.5;" width="129" x="5" y="50"/><text fill="#000000" font-family="sans-serif" font-size="14" lengthAdjust="spacing" textLength="115" x="12" y="70.5352">Practitioner View</text><rect fill="#E2E2F0" height="30.4883" rx="2.5" ry="2.5" style="stroke:#181818;stroke-width:0.5;" width="129" x="5" y="683.0781"/><text fill="#000000" font-family="sans-serif" font-size="14" lengthAdjust="spacing" textLength="115" x="12" y="703.6133">Practitioner View</text><rect fill="#E2E2F0" height="30.4883" rx="2.5" ry="2.5" style="stroke:#181818;stroke-width:0.5;" width="180" x="500.5" y="50"/><text fill="#000000" font-family="sans-serif" font-size="14" lengthAdjust="spacing" textLength="166" x="507.5" y="70.5352">Shared Care FHIR Server</text><rect fill="#E2E2F0" height="30.4883" rx="2.5" ry="2.5" style="stroke:#181818;stroke-width:0.5;" width="180" x="500.5" y="683.0781"/><text fill="#000000" font-family="sans-serif" font-size="14" lengthAdjust="spacing" textLength="166" x="507.5" y="703.6133">Shared Care FHIR Server</text><rect fill="#E2E2F0" height="30.4883" rx="2.5" ry="2.5" style="stroke:#181818;stroke-width:0.5;" width="84" x="1058.5" y="50"/><text fill="#000000" font-family="sans-serif" font-size="14" lengthAdjust="spacing" textLength="70" x="1065.5" y="70.5352">Piki te Ora</text><rect fill="#E2E2F0" height="30.4883" rx="2.5" ry="2.5" style="stroke:#181818;stroke-width:0.5;" width="84" x="1058.5" y="683.0781"/><text fill="#000000" font-family="sans-serif" font-size="14" lengthAdjust="spacing" textLength="70" x="1065.5" y="703.6133">Piki te Ora</text><text fill="#000000" font-family="sans-serif" font-size="14" lengthAdjust="spacing" textLength="47" x="1436" y="78.5352">Patient</text><ellipse cx="1462.5" cy="13.5" fill="#E2E2F0" rx="8" ry="8" style="stroke:#181818;stroke-width:0.5;"/><path d="M1462.5,21.5 L1462.5,48.5 M1449.5,29.5 L1475.5,29.5 M1462.5,48.5 L1449.5,63.5 M1462.5,48.5 L1475.5,63.5 " fill="none" style="stroke:#181818;stroke-width:0.5;"/><text fill="#000000" font-family="sans-serif" font-size="14" lengthAdjust="spacing" textLength="47" x="1436" y="696.6133">Patient</text><ellipse cx="1462.5" cy="708.0664" fill="#E2E2F0" rx="8" ry="8" style="stroke:#181818;stroke-width:0.5;"/><path d="M1462.5,716.0664 L1462.5,743.0664 M1449.5,724.0664 L1475.5,724.0664 M1462.5,743.0664 L1449.5,758.0664 M1462.5,743.0664 L1475.5,758.0664 " fill="none" style="stroke:#181818;stroke-width:0.5;"/><rect fill="#E2E2F0" height="30.4883" rx="2.5" ry="2.5" style="stroke:#181818;stroke-width:0.5;" width="190" x="1499" y="50"/><text fill="#000000" font-family="sans-serif" font-size="14" lengthAdjust="spacing" textLength="176" x="1506" y="70.5352">Education Content Bucket</text><rect fill="#E2E2F0" height="30.4883" rx="2.5" ry="2.5" style="stroke:#181818;stroke-width:0.5;" width="190" x="1499" y="683.0781"/><text fill="#000000" font-family="sans-serif" font-size="14" lengthAdjust="spacing" textLength="176" x="1506" y="703.6133">Education Content Bucket</text><rect fill="#EEEEEE" height="3" style="stroke:#EEEEEE;stroke-width:1.0;" width="1694" x="0" y="112.1436"/><line style="stroke:#000000;stroke-width:1.0;" x1="0" x2="1694" y1="112.1436" y2="112.1436"/><line style="stroke:#000000;stroke-width:1.0;" x1="0" x2="1694" y1="115.1436" y2="115.1436"/><rect fill="#EEEEEE" height="23.3105" style="stroke:#000000;stroke-width:2.0;" width="151" x="771.5" y="101.4883"/><text fill="#000000" font-family="sans-serif" font-size="13" font-weight="bold" lengthAdjust="spacing" textLength="133" x="777.5" y="118.0566">Patient Onboarding</text><polygon fill="#181818" points="578.5,152.1094,588.5,156.1094,578.5,160.1094,582.5,156.1094" style="stroke:#181818;stroke-width:1.0;"/><line style="stroke:#181818;stroke-width:1.0;" x1="69.5" x2="584.5" y1="156.1094" y2="156.1094"/><text fill="#000000" font-family="sans-serif" font-size="13" lengthAdjust="spacing" textLength="255" x="76.5" y="151.3672">POST CarePlan and Associated resources</text><polygon fill="#181818" points="578.5,181.4199,588.5,185.4199,578.5,189.4199,582.5,185.4199" style="stroke:#181818;stroke-width:1.0;"/><line style="stroke:#181818;stroke-width:1.0;" x1="69.5" x2="584.5" y1="185.4199" y2="185.4199"/><text fill="#000000" font-family="sans-serif" font-size="13" lengthAdjust="spacing" textLength="130" x="76.5" y="180.6777">POST Top Level Task</text><polygon fill="#181818" points="578.5,210.7305,588.5,214.7305,578.5,218.7305,582.5,214.7305" style="stroke:#181818;stroke-width:1.0;"/><line style="stroke:#181818;stroke-width:1.0;" x1="69.5" x2="584.5" y1="214.7305" y2="214.7305"/><text fill="#000000" font-family="sans-serif" font-size="13" lengthAdjust="spacing" textLength="151" x="76.5" y="209.9883">POST Group Level Tasks</text><polygon fill="#181818" points="578.5,240.041,588.5,244.041,578.5,248.041,582.5,244.041" style="stroke:#181818;stroke-width:1.0;"/><line style="stroke:#181818;stroke-width:1.0;" x1="69.5" x2="584.5" y1="244.041" y2="244.041"/><text fill="#000000" font-family="sans-serif" font-size="13" lengthAdjust="spacing" textLength="159" x="76.5" y="239.2988">POST Module Level Tasks</text><polygon fill="#181818" points="578.5,269.3516,588.5,273.3516,578.5,277.3516,582.5,273.3516" style="stroke:#181818;stroke-width:1.0;"/><line style="stroke:#181818;stroke-width:1.0;" x1="69.5" x2="584.5" y1="273.3516" y2="273.3516"/><text fill="#000000" font-family="sans-serif" font-size="13" lengthAdjust="spacing" textLength="197" x="76.5" y="268.6094">PUT Careplan (attatching tasks)</text><rect fill="#EEEEEE" height="3" style="stroke:#EEEEEE;stroke-width:1.0;" width="1694" x="0" y="302.0068"/><line style="stroke:#000000;stroke-width:1.0;" x1="0" x2="1694" y1="302.0068" y2="302.0068"/><line style="stroke:#000000;stroke-width:1.0;" x1="0" x2="1694" y1="305.0068" y2="305.0068"/><rect fill="#EEEEEE" height="23.3105" style="stroke:#000000;stroke-width:2.0;" width="248" x="723" y="291.3516"/><text fill="#000000" font-family="sans-serif" font-size="13" font-weight="bold" lengthAdjust="spacing" textLength="230" x="729" y="307.9199">Educational Content Consumption</text><polygon fill="#181818" points="1111.5,341.9727,1101.5,345.9727,1111.5,349.9727,1107.5,345.9727" style="stroke:#181818;stroke-width:1.0;"/><line style="stroke:#181818;stroke-width:1.0;" x1="1105.5" x2="1461.5" y1="345.9727" y2="345.9727"/><text fill="#000000" font-family="sans-serif" font-size="13" lengthAdjust="spacing" textLength="338" x="1117.5" y="341.2305">Opens App, Selects and Consumes Education Content</text><polygon fill="#181818" points="1582,371.2832,1592,375.2832,1582,379.2832,1586,375.2832" style="stroke:#181818;stroke-width:1.0;"/><line style="stroke:#181818;stroke-width:1.0;" x1="1100.5" x2="1588" y1="375.2832" y2="375.2832"/><text fill="#000000" font-family="sans-serif" font-size="13" lengthAdjust="spacing" textLength="168" x="1107.5" y="370.541">Fetches Education Content</text><line style="stroke:#181818;stroke-width:1.0;" x1="1100.5" x2="1142.5" y1="404.5938" y2="404.5938"/><line style="stroke:#181818;stroke-width:1.0;" x1="1142.5" x2="1142.5" y1="404.5938" y2="417.5938"/><line style="stroke:#181818;stroke-width:1.0;" x1="1101.5" x2="1142.5" y1="417.5938" y2="417.5938"/><polygon fill="#181818" points="1111.5,413.5938,1101.5,417.5938,1111.5,421.5938,1107.5,417.5938" style="stroke:#181818;stroke-width:1.0;"/><text fill="#000000" font-family="sans-serif" font-size="13" lengthAdjust="spacing" textLength="97" x="1107.5" y="399.8516">Render Content</text><polygon fill="#181818" points="1111.5,442.9043,1101.5,446.9043,1111.5,450.9043,1107.5,446.9043" style="stroke:#181818;stroke-width:1.0;"/><line style="stroke:#181818;stroke-width:1.0;" x1="1105.5" x2="1461.5" y1="446.9043" y2="446.9043"/><text fill="#000000" font-family="sans-serif" font-size="13" lengthAdjust="spacing" textLength="117" x="1117.5" y="442.1621">Completes Module</text><polygon fill="#181818" points="601.5,472.2148,591.5,476.2148,601.5,480.2148,597.5,476.2148" style="stroke:#181818;stroke-width:1.0;"/><line style="stroke:#181818;stroke-width:1.0;" x1="595.5" x2="1099.5" y1="476.2148" y2="476.2148"/><text fill="#000000" font-family="sans-serif" font-size="13" lengthAdjust="spacing" textLength="486" x="607.5" y="471.4727">GET Task?code=exampleModulecode&amp;owner=nhi&amp;profile=rpmEducationTask</text><polygon fill="#181818" points="601.5,501.5254,591.5,505.5254,601.5,509.5254,597.5,505.5254" style="stroke:#181818;stroke-width:1.0;"/><line style="stroke:#181818;stroke-width:1.0;" x1="595.5" x2="1099.5" y1="505.5254" y2="505.5254"/><text fill="#000000" font-family="sans-serif" font-size="13" lengthAdjust="spacing" textLength="275" x="607.5" y="500.7832">PUT Task (setting task.status to completed)</text><polygon fill="#181818" points="1111.5,530.8359,1101.5,534.8359,1111.5,538.8359,1107.5,534.8359" style="stroke:#181818;stroke-width:1.0;"/><line style="stroke:#181818;stroke-width:1.0;" x1="1105.5" x2="1461.5" y1="534.8359" y2="534.8359"/><text fill="#000000" font-family="sans-serif" font-size="13" lengthAdjust="spacing" textLength="215" x="1117.5" y="530.0938">Complete Feedback Questionnaire</text><polygon fill="#181818" points="601.5,560.1465,591.5,564.1465,601.5,568.1465,597.5,564.1465" style="stroke:#181818;stroke-width:1.0;"/><line style="stroke:#181818;stroke-width:1.0;" x1="595.5" x2="1099.5" y1="564.1465" y2="564.1465"/><text fill="#000000" font-family="sans-serif" font-size="13" lengthAdjust="spacing" textLength="262" x="607.5" y="559.4043">POST QuestionnaireResponse (completed)</text><rect fill="#EEEEEE" height="3" style="stroke:#EEEEEE;stroke-width:1.0;" width="1694" x="0" y="592.8018"/><line style="stroke:#000000;stroke-width:1.0;" x1="0" x2="1694" y1="592.8018" y2="592.8018"/><line style="stroke:#000000;stroke-width:1.0;" x1="0" x2="1694" y1="595.8018" y2="595.8018"/><rect fill="#EEEEEE" height="23.3105" style="stroke:#000000;stroke-width:2.0;" width="186" x="754" y="582.1465"/><text fill="#000000" font-family="sans-serif" font-size="13" font-weight="bold" lengthAdjust="spacing" textLength="168" x="760" y="598.7148">Provider View Rendering</text><polygon fill="#181818" points="578.5,632.7676,588.5,636.7676,578.5,640.7676,582.5,636.7676" style="stroke:#181818;stroke-width:1.0;"/><line style="stroke:#181818;stroke-width:1.0;" x1="69.5" x2="584.5" y1="636.7676" y2="636.7676"/><text fill="#000000" font-family="sans-serif" font-size="13" lengthAdjust="spacing" textLength="83" x="76.5" y="632.0254">GET Careplan</text><polygon fill="#181818" points="578.5,662.0781,588.5,666.0781,578.5,670.0781,582.5,666.0781" style="stroke:#181818;stroke-width:1.0;"/><line style="stroke:#181818;stroke-width:1.0;" x1="69.5" x2="584.5" y1="666.0781" y2="666.0781"/><text fill="#000000" font-family="sans-serif" font-size="13" lengthAdjust="spacing" textLength="497" x="76.5" y="661.3359">GET Task?basedOn=Careplan/example&amp;owner=nhi&amp;profile=rpmEducationTask</text><!--SRC=[ZPD1J-Cm48Nl-HKZ3gX8o-uTAI1Q5NObLWbjj_UfFL2hgMtPax8_dx6JL2qjY4kYsE-DttoUU0nibF5e6IxgW8eD6sSfmDBGsmLWX7fP-4FLV8s1D4pa2G-__ynWJc578MlJzx6wDXi3J505p8fxxmivnGMeaGrPFfPFTQim9O29iopRC6xLXZXxfvDnKPJbu8JAhXm6RUmhb6LHB-7wjajq0tKrN-I8TOCMq6guZz4fWopH0qNN1aNnZ6VXF3pHZXfOODoS4Jm6rnvApXNvwtJRq1UYVrqudyADa1bPhLCRdBHNHUvoZmARFGnvntRhCw3KSWz2AWjNALnvifdn3xcLXXJ7t7jdemWdU8la4xkW5Vi3IOwlPDqfCx9Q9cJOEqanSLlV44kX3iJWxhj_d2uob3lbD9Nq7vEwKwQLI_ScyrVQjRdqmRsOXihWj_j8-LgE2oQSQHb6aPW7ZZ-ZO6qZi0FL1z9NduULvaclK6tWkQMOJh9emiVi-NgF13EANl0IZ0vEoLCQtCxe_a_gcPqRrOHZ68RJdGngXP5qPSj1zgk7zXrKxm00]--></g></svg>