<?xml version="1.0" encoding="us-ascii" standalone="no"?><svg xmlns="http://www.w3.org/2000/svg" xmlns:xlink="http://www.w3.org/1999/xlink" contentStyleType="text/css" height="474px" preserveAspectRatio="none" style="width:817px;height:474px;background:#FFFFFF;" version="1.1" viewBox="0 0 817 474" width="817px" zoomAndPan="magnify"><defs/><g><g id="elem_CarePlan"><rect fill="#F1F1F1" height="94.4414" style="stroke:#181818;stroke-width:0.5;" width="476" x="159.76" y="7"/><text fill="#000000" font-family="sans-serif" font-size="14" lengthAdjust="spacing" textLength="170" x="312.76" y="22.5352">CarePlan: Education Plan</text><line style="stroke:#181818;stroke-width:0.5;" x1="160.76" x2="634.76" y1="27.4883" y2="27.4883"/><text fill="#000000" font-family="sans-serif" font-size="14" lengthAdjust="spacing" textLength="177" x="165.76" y="45.0234">id = "careplan-education"</text><text fill="#000000" font-family="sans-serif" font-size="14" lengthAdjust="spacing" textLength="109" x="165.76" y="61.5117">status = "active"</text><text fill="#000000" font-family="sans-serif" font-size="14" lengthAdjust="spacing" textLength="99" x="165.76" y="78">intent = "plan"</text><text fill="#000000" font-family="sans-serif" font-size="14" lengthAdjust="spacing" textLength="464" x="165.76" y="94.4883">description = "Care plan defining the patient's educational syllabus"</text></g><g id="elem_Syllabus"><rect fill="#F1F1F1" height="44.9766" style="stroke:#181818;stroke-width:0.5;" width="194" x="300.76" y="422.39"/><text fill="#000000" font-family="sans-serif" font-size="14" lengthAdjust="spacing" textLength="180" x="307.76" y="437.9252">Task: Educational Syllabus</text><line style="stroke:#181818;stroke-width:0.5;" x1="301.76" x2="493.76" y1="442.8783" y2="442.8783"/><text fill="#000000" font-family="sans-serif" font-size="14" lengthAdjust="spacing" textLength="133" x="306.76" y="460.4134">id = "task-syllabus"</text></g><g id="elem_Group1"><rect fill="#F1F1F1" height="44.9766" style="stroke:#181818;stroke-width:0.5;" width="149" x="323.26" y="300.42"/><text fill="#000000" font-family="sans-serif" font-size="14" lengthAdjust="spacing" textLength="96" x="349.76" y="315.9552">Task: Group 1</text><line style="stroke:#181818;stroke-width:0.5;" x1="324.26" x2="471.26" y1="320.9083" y2="320.9083"/><text fill="#000000" font-family="sans-serif" font-size="14" lengthAdjust="spacing" textLength="137" x="329.26" y="338.4434">id = "task-group-1"</text></g><g id="elem_Module11"><rect fill="#F1F1F1" height="44.9766" style="stroke:#181818;stroke-width:0.5;" width="176" x="548.76" y="178.44"/><text fill="#000000" font-family="sans-serif" font-size="14" lengthAdjust="spacing" textLength="117" x="578.26" y="193.9752">Task: Module 1.1</text><line style="stroke:#181818;stroke-width:0.5;" x1="549.76" x2="723.76" y1="198.9283" y2="198.9283"/><text fill="#000000" font-family="sans-serif" font-size="14" lengthAdjust="spacing" textLength="164" x="554.76" y="216.4634">id = "task-module-1-1"</text></g><g id="elem_Module12"><rect fill="#F1F1F1" height="44.9766" style="stroke:#181818;stroke-width:0.5;" width="176" x="92.76" y="178.44"/><text fill="#000000" font-family="sans-serif" font-size="14" lengthAdjust="spacing" textLength="117" x="122.26" y="193.9752">Task: Module 1.2</text><line style="stroke:#181818;stroke-width:0.5;" x1="93.76" x2="267.76" y1="198.9283" y2="198.9283"/><text fill="#000000" font-family="sans-serif" font-size="14" lengthAdjust="spacing" textLength="164" x="98.76" y="216.4634">id = "task-module-1-2"</text></g><!--link CarePlan to Syllabus--><g id="link_CarePlan_Syllabus"><path codeLine="32" d="M162.91,101.9 C127.56,119.77 96.15,144.43 75.76,178.44 C6,294.79 204.8878,381.0233 319.7878,419.9833 " fill="none" id="CarePlan-to-Syllabus" style="stroke:#181818;stroke-width:1.0;"/><polygon fill="#181818" points="325.47,421.91,318.2311,415.2318,320.7348,420.3044,315.6622,422.8081,325.47,421.91" style="stroke:#181818;stroke-width:1.0;"/><text fill="#000000" font-family="sans-serif" font-size="13" lengthAdjust="spacing" textLength="46" x="75.36" y="266.9884">activity</text></g><!--link Syllabus to CarePlan--><g id="link_Syllabus_CarePlan"><path codeLine="38" d="M478.31,421.99 C600.19,384.46 810.41,299.95 741.76,178.44 C718.44,137.15 684.9228,111.815 641.3528,93.315 " fill="none" id="Syllabus-to-CarePlan" style="stroke:#181818;stroke-width:1.0;"/><polygon fill="#181818" points="635.83,90.97,642.5508,98.1693,640.4323,92.9242,645.6775,90.8056,635.83,90.97" style="stroke:#181818;stroke-width:1.0;"/><text fill="#000000" font-family="sans-serif" font-size="13" lengthAdjust="spacing" textLength="55" x="751.09" y="266.9884">basedOn</text></g><!--link CarePlan to Group1--><g id="link_CarePlan_Group1"><path codeLine="33" d="M380.11,101.85 C369.51,135.53 359.23,182.17 365.76,223.42 C370.06,250.59 378.428,274.8866 386.258,294.5266 " fill="none" id="CarePlan-to-Group1" style="stroke:#181818;stroke-width:1.0;"/><polygon fill="#181818" points="388.48,300.1,388.8626,290.2586,386.6283,295.4555,381.4314,293.2212,388.48,300.1" style="stroke:#181818;stroke-width:1.0;"/><text fill="#000000" font-family="sans-serif" font-size="13" lengthAdjust="spacing" textLength="46" x="366.76" y="205.9984">activity</text></g><!--link Group1 to CarePlan--><g id="link_Group1_CarePlan"><path codeLine="39" d="M403.48,300.19 C408.38,280.36 415.07,250.15 417.76,223.42 C421.89,182.31 416.6306,141.5467 409.9806,107.8167 " fill="none" id="Group1-to-CarePlan" style="stroke:#181818;stroke-width:1.0;"/><polygon fill="#181818" points="408.82,101.93,406.6364,111.5337,409.7872,106.8356,414.4853,109.9863,408.82,101.93" style="stroke:#181818;stroke-width:1.0;"/><text fill="#000000" font-family="sans-serif" font-size="13" lengthAdjust="spacing" textLength="55" x="420.07" y="205.9984">basedOn</text></g><!--link CarePlan to Module11--><g id="link_CarePlan_Module11"><path codeLine="34" d="M458.59,101.83 C480.21,117.49 505.06,134.5 528.76,148.44 C546.93,159.13 562.2266,166.9163 580.6466,175.4563 " fill="none" id="CarePlan-to-Module11" style="stroke:#181818;stroke-width:1.0;"/><polygon fill="#181818" points="586.09,177.98,579.6073,170.5655,581.5538,175.8769,576.2424,177.8234,586.09,177.98" style="stroke:#181818;stroke-width:1.0;"/><text fill="#000000" font-family="sans-serif" font-size="13" lengthAdjust="spacing" textLength="46" x="529.76" y="145.0084">activity</text></g><!--link Module11 to CarePlan--><g id="link_Module11_CarePlan"><path codeLine="40" d="M623.09,178.08 C612.92,163.29 597.89,144.19 580.76,131.44 C565.72,120.24 554.1521,113.0221 536.8221,104.4021 " fill="none" id="Module11-to-CarePlan" style="stroke:#181818;stroke-width:1.0;"/><polygon fill="#181818" points="531.45,101.73,537.7268,109.3196,535.9268,103.9568,541.2896,102.1568,531.45,101.73" style="stroke:#181818;stroke-width:1.0;"/><text fill="#000000" font-family="sans-serif" font-size="13" lengthAdjust="spacing" textLength="55" x="599.7" y="145.0084">basedOn</text></g><!--link CarePlan to Module12--><g id="link_CarePlan_Module12"><path codeLine="35" d="M311.7,101.79 C295.81,111.16 279.57,121.26 264.76,131.44 C243.83,145.83 226.1584,160.177 209.8384,174.217 " fill="none" id="CarePlan-to-Module12" style="stroke:#181818;stroke-width:1.0;"/><polygon fill="#181818" points="205.29,178.13,214.7213,175.2928,209.0804,174.8692,209.504,169.2282,205.29,178.13" style="stroke:#181818;stroke-width:1.0;"/><text fill="#000000" font-family="sans-serif" font-size="13" lengthAdjust="spacing" textLength="46" x="265.76" y="145.0084">activity</text></g><!--link Module12 to CarePlan--><g id="link_Module12_CarePlan"><path codeLine="41" d="M173.37,178.22 C169.85,163.68 168.24,144.82 177.76,131.44 C185.97,119.91 191.2134,113.6843 202.4934,105.3543 " fill="none" id="Module12-to-CarePlan" style="stroke:#181818;stroke-width:1.0;"/><polygon fill="#181818" points="207.32,101.79,197.7039,103.9187,203.2979,104.7603,202.4563,110.3542,207.32,101.79" style="stroke:#181818;stroke-width:1.0;"/><text fill="#000000" font-family="sans-serif" font-size="13" lengthAdjust="spacing" textLength="55" x="178.76" y="145.0084">basedOn</text></g><!--link Group1 to Syllabus--><g id="link_Group1_Syllabus"><path codeLine="44" d="M397.76,345.63 C397.76,367.24 397.76,394.22 397.76,415.91 " fill="none" id="Group1-to-Syllabus" style="stroke:#181818;stroke-width:1.0;"/><polygon fill="#181818" points="397.76,421.91,401.76,412.91,397.76,416.91,393.76,412.91,397.76,421.91" style="stroke:#181818;stroke-width:1.0;"/><text fill="#000000" font-family="sans-serif" font-size="13" lengthAdjust="spacing" textLength="40" x="398.76" y="388.9584">partOf</text></g><!--link Module11 to Group1--><g id="link_Module11_Group1"><path codeLine="45" d="M593.2,223.79 C550.12,245.42 489.9123,275.6483 446.7823,297.2983 " fill="none" id="Module11-to-Group1" style="stroke:#181818;stroke-width:1.0;"/><polygon fill="#181818" points="441.42,299.99,451.258,299.5273,445.8886,297.7469,447.669,292.3775,441.42,299.99" style="stroke:#181818;stroke-width:1.0;"/><text fill="#000000" font-family="sans-serif" font-size="13" lengthAdjust="spacing" textLength="40" x="532.57" y="266.9884">partOf</text></g><!--link Module12 to Group1--><g id="link_Module12_Group1"><path codeLine="46" d="M205.49,223.62 C222.9,238.15 247.22,257 270.76,270.42 C290.61,281.72 307.8464,289.5937 328.6164,297.7637 " fill="none" id="Module12-to-Group1" style="stroke:#181818;stroke-width:1.0;"/><polygon fill="#181818" points="334.2,299.96,327.2889,292.9431,329.547,298.1297,324.3604,300.3879,334.2,299.96" style="stroke:#181818;stroke-width:1.0;"/><text fill="#000000" font-family="sans-serif" font-size="13" lengthAdjust="spacing" textLength="40" x="271.76" y="266.9884">partOf</text></g><!--SRC=[XLB1JiCm3BtdAwnUTkgazZXfI6WWkA0XRJ-GDja8P4cKf8CAyUyuQPjrXMgtsE_v-TdE0lRQv4n_Af2qrOqdNXlm6YhjlJu14vRNNcX5o08U-44e3lwDmuPQ_Ygf8hfwHm9aGs85ZwofQIY146T0NMB3Dm4G3DQGrPWocChvGCyGSvxwnWMSOjSp3pcXF5S-v08_P1XtjHKczbXthI5W2A11eOxHea5LB5muI2se1DTAIQl6PUGdZBH1XXsbmLFtaORQOp0Q27cxeJoCDGIZiK9vFkcnGqUImz7gnlod_nI18ah6Tp4LZALvqUkzQDP8xg1HZDkXUgBPSQ1OTh9TMFmHFiLyNlJQCnhbMAESrIY7dVRNNiOR2j-2qU68reMFHQMCIt0a_OeylxliSjNV7kkoQqg_ctb2cl8cfRoceEdxmHPKr76sLTVVFDaB8aaHHNfsHdftitWoTujHpZFGvxFWbjhwhGN-PIntYC1PKFpjrcyFOnVZZNRenCHbdnEud85_0G00]--></g></svg>