<?xml version="1.0" encoding="us-ascii" standalone="no"?><svg xmlns="http://www.w3.org/2000/svg" xmlns:xlink="http://www.w3.org/1999/xlink" contentStyleType="text/css" height="905px" preserveAspectRatio="none" style="width:1654px;height:905px;background:#FFFFFF;" version="1.1" viewBox="0 0 1654 905" width="1654px" zoomAndPan="magnify"><defs/><g><rect fill="none" height="126.5527" style="stroke:#000000;stroke-width:1.5;" width="995.5" x="500.5" y="520.5254"/><line style="stroke:#181818;stroke-width:0.5;stroke-dasharray:5.0,5.0;" x1="69" x2="69" y1="81.4883" y2="824.6309"/><line style="stroke:#181818;stroke-width:0.5;stroke-dasharray:5.0,5.0;" x1="600.5" x2="600.5" y1="81.4883" y2="824.6309"/><line style="stroke:#181818;stroke-width:0.5;stroke-dasharray:5.0,5.0;" x1="1123.5" x2="1123.5" y1="81.4883" y2="824.6309"/><line style="stroke:#181818;stroke-width:0.5;stroke-dasharray:5.0,5.0;" x1="1415" x2="1415" y1="81.4883" y2="824.6309"/><line style="stroke:#181818;stroke-width:0.5;stroke-dasharray:5.0,5.0;" x1="1547" x2="1547" y1="81.4883" y2="824.6309"/><rect fill="#E2E2F0" height="30.4883" rx="2.5" ry="2.5" style="stroke:#181818;stroke-width:0.5;" width="129" x="5" y="50"/><text fill="#000000" font-family="sans-serif" font-size="14" lengthAdjust="spacing" textLength="115" x="12" y="70.5352">Practitioner View</text><rect fill="#E2E2F0" height="30.4883" rx="2.5" ry="2.5" style="stroke:#181818;stroke-width:0.5;" width="129" x="5" y="823.6309"/><text fill="#000000" font-family="sans-serif" font-size="14" lengthAdjust="spacing" textLength="115" x="12" y="844.166">Practitioner View</text><rect fill="#E2E2F0" height="30.4883" rx="2.5" ry="2.5" style="stroke:#181818;stroke-width:0.5;" width="180" x="510.5" y="50"/><text fill="#000000" font-family="sans-serif" font-size="14" lengthAdjust="spacing" textLength="166" x="517.5" y="70.5352">Shared Care FHIR Server</text><rect fill="#E2E2F0" height="30.4883" rx="2.5" ry="2.5" style="stroke:#181818;stroke-width:0.5;" width="180" x="510.5" y="823.6309"/><text fill="#000000" font-family="sans-serif" font-size="14" lengthAdjust="spacing" textLength="166" x="517.5" y="844.166">Shared Care FHIR Server</text><rect fill="#E2E2F0" height="30.4883" rx="2.5" ry="2.5" style="stroke:#181818;stroke-width:0.5;" width="84" x="1081.5" y="50"/><text fill="#000000" font-family="sans-serif" font-size="14" lengthAdjust="spacing" textLength="70" x="1088.5" y="70.5352">Piki te Ora</text><rect fill="#E2E2F0" height="30.4883" rx="2.5" ry="2.5" style="stroke:#181818;stroke-width:0.5;" width="84" x="1081.5" y="823.6309"/><text fill="#000000" font-family="sans-serif" font-size="14" lengthAdjust="spacing" textLength="70" x="1088.5" y="844.166">Piki te Ora</text><text fill="#000000" font-family="sans-serif" font-size="14" lengthAdjust="spacing" textLength="47" x="1389" y="78.5352">Patient</text><ellipse cx="1415.5" cy="13.5" fill="#E2E2F0" rx="8" ry="8" style="stroke:#181818;stroke-width:0.5;"/><path d="M1415.5,21.5 L1415.5,48.5 M1402.5,29.5 L1428.5,29.5 M1415.5,48.5 L1402.5,63.5 M1415.5,48.5 L1428.5,63.5 " fill="none" style="stroke:#181818;stroke-width:0.5;"/><text fill="#000000" font-family="sans-serif" font-size="14" lengthAdjust="spacing" textLength="47" x="1389" y="837.166">Patient</text><ellipse cx="1415.5" cy="848.6191" fill="#E2E2F0" rx="8" ry="8" style="stroke:#181818;stroke-width:0.5;"/><path d="M1415.5,856.6191 L1415.5,883.6191 M1402.5,864.6191 L1428.5,864.6191 M1415.5,883.6191 L1402.5,898.6191 M1415.5,883.6191 L1428.5,898.6191 " fill="none" style="stroke:#181818;stroke-width:0.5;"/><rect fill="#E2E2F0" height="30.4883" rx="2.5" ry="2.5" style="stroke:#181818;stroke-width:0.5;" width="190" x="1452" y="50"/><text fill="#000000" font-family="sans-serif" font-size="14" lengthAdjust="spacing" textLength="176" x="1459" y="70.5352">Education Content Bucket</text><rect fill="#E2E2F0" height="30.4883" rx="2.5" ry="2.5" style="stroke:#181818;stroke-width:0.5;" width="190" x="1452" y="823.6309"/><text fill="#000000" font-family="sans-serif" font-size="14" lengthAdjust="spacing" textLength="176" x="1459" y="844.166">Education Content Bucket</text><rect fill="#EEEEEE" height="3" style="stroke:#EEEEEE;stroke-width:1.0;" width="1647" x="0" y="112.1436"/><line style="stroke:#000000;stroke-width:1.0;" x1="0" x2="1647" y1="112.1436" y2="112.1436"/><line style="stroke:#000000;stroke-width:1.0;" x1="0" x2="1647" y1="115.1436" y2="115.1436"/><rect fill="#EEEEEE" height="23.3105" style="stroke:#000000;stroke-width:2.0;" width="151" x="748" y="101.4883"/><text fill="#000000" font-family="sans-serif" font-size="13" font-weight="bold" lengthAdjust="spacing" textLength="133" x="754" y="118.0566">Patient Onboarding</text><polygon fill="#181818" points="588.5,152.1094,598.5,156.1094,588.5,160.1094,592.5,156.1094" style="stroke:#181818;stroke-width:1.0;"/><line style="stroke:#181818;stroke-width:1.0;" x1="69.5" x2="594.5" y1="156.1094" y2="156.1094"/><text fill="#000000" font-family="sans-serif" font-size="13" lengthAdjust="spacing" textLength="255" x="76.5" y="151.3672">POST CarePlan and Associated resources</text><polygon fill="#181818" points="588.5,181.4199,598.5,185.4199,588.5,189.4199,592.5,185.4199" style="stroke:#181818;stroke-width:1.0;"/><line style="stroke:#181818;stroke-width:1.0;" x1="69.5" x2="594.5" y1="185.4199" y2="185.4199"/><text fill="#000000" font-family="sans-serif" font-size="13" lengthAdjust="spacing" textLength="194" x="76.5" y="180.6777">POST Top Level Task (Syllabus)</text><polygon fill="#181818" points="588.5,210.7305,598.5,214.7305,588.5,218.7305,592.5,214.7305" style="stroke:#181818;stroke-width:1.0;"/><line style="stroke:#181818;stroke-width:1.0;" x1="69.5" x2="594.5" y1="214.7305" y2="214.7305"/><text fill="#000000" font-family="sans-serif" font-size="13" lengthAdjust="spacing" textLength="139" x="76.5" y="209.9883">POST Unit Level Tasks</text><polygon fill="#181818" points="588.5,240.041,598.5,244.041,588.5,248.041,592.5,244.041" style="stroke:#181818;stroke-width:1.0;"/><line style="stroke:#181818;stroke-width:1.0;" x1="69.5" x2="594.5" y1="244.041" y2="244.041"/><text fill="#000000" font-family="sans-serif" font-size="13" lengthAdjust="spacing" textLength="159" x="76.5" y="239.2988">POST Module Level Tasks</text><polygon fill="#181818" points="588.5,269.3516,598.5,273.3516,588.5,277.3516,592.5,273.3516" style="stroke:#181818;stroke-width:1.0;"/><line style="stroke:#181818;stroke-width:1.0;" x1="69.5" x2="594.5" y1="273.3516" y2="273.3516"/><text fill="#000000" font-family="sans-serif" font-size="13" lengthAdjust="spacing" textLength="191" x="76.5" y="268.6094">PUT CarePlan (attaching tasks)</text><rect fill="#EEEEEE" height="3" style="stroke:#EEEEEE;stroke-width:1.0;" width="1647" x="0" y="302.0068"/><line style="stroke:#000000;stroke-width:1.0;" x1="0" x2="1647" y1="302.0068" y2="302.0068"/><line style="stroke:#000000;stroke-width:1.0;" x1="0" x2="1647" y1="305.0068" y2="305.0068"/><rect fill="#EEEEEE" height="23.3105" style="stroke:#000000;stroke-width:2.0;" width="248" x="699.5" y="291.3516"/><text fill="#000000" font-family="sans-serif" font-size="13" font-weight="bold" lengthAdjust="spacing" textLength="230" x="705.5" y="307.9199">Educational Content Consumption</text><polygon fill="#181818" points="1134.5,341.9727,1124.5,345.9727,1134.5,349.9727,1130.5,345.9727" style="stroke:#181818;stroke-width:1.0;"/><line style="stroke:#181818;stroke-width:1.0;" x1="1128.5" x2="1414.5" y1="345.9727" y2="345.9727"/><text fill="#000000" font-family="sans-serif" font-size="13" lengthAdjust="spacing" textLength="268" x="1140.5" y="341.2305">Opens App, Selects and Consumes Module</text><polygon fill="#181818" points="1535,371.2832,1545,375.2832,1535,379.2832,1539,375.2832" style="stroke:#181818;stroke-width:1.0;"/><line style="stroke:#181818;stroke-width:1.0;" x1="1123.5" x2="1541" y1="375.2832" y2="375.2832"/><text fill="#000000" font-family="sans-serif" font-size="13" lengthAdjust="spacing" textLength="168" x="1130.5" y="370.541">Fetches Education Content</text><line style="stroke:#181818;stroke-width:1.0;" x1="1123.5" x2="1165.5" y1="404.5938" y2="404.5938"/><line style="stroke:#181818;stroke-width:1.0;" x1="1165.5" x2="1165.5" y1="404.5938" y2="417.5938"/><line style="stroke:#181818;stroke-width:1.0;" x1="1124.5" x2="1165.5" y1="417.5938" y2="417.5938"/><polygon fill="#181818" points="1134.5,413.5938,1124.5,417.5938,1134.5,421.5938,1130.5,417.5938" style="stroke:#181818;stroke-width:1.0;"/><text fill="#000000" font-family="sans-serif" font-size="13" lengthAdjust="spacing" textLength="97" x="1130.5" y="399.8516">Render Content</text><polygon fill="#181818" points="1134.5,442.9043,1124.5,446.9043,1134.5,450.9043,1130.5,446.9043" style="stroke:#181818;stroke-width:1.0;"/><line style="stroke:#181818;stroke-width:1.0;" x1="1128.5" x2="1414.5" y1="446.9043" y2="446.9043"/><text fill="#000000" font-family="sans-serif" font-size="13" lengthAdjust="spacing" textLength="117" x="1140.5" y="442.1621">Completes Module</text><polygon fill="#181818" points="611.5,472.2148,601.5,476.2148,611.5,480.2148,607.5,476.2148" style="stroke:#181818;stroke-width:1.0;"/><line style="stroke:#181818;stroke-width:1.0;" x1="605.5" x2="1122.5" y1="476.2148" y2="476.2148"/><text fill="#000000" font-family="sans-serif" font-size="13" lengthAdjust="spacing" textLength="499" x="617.5" y="471.4727">GET Task?code=exampleModuleCode&amp;owner=nhi&amp;profile=rpmEducationalTask</text><polygon fill="#181818" points="611.5,501.5254,601.5,505.5254,611.5,509.5254,607.5,505.5254" style="stroke:#181818;stroke-width:1.0;"/><line style="stroke:#181818;stroke-width:1.0;" x1="605.5" x2="1122.5" y1="505.5254" y2="505.5254"/><text fill="#000000" font-family="sans-serif" font-size="13" lengthAdjust="spacing" textLength="270" x="617.5" y="500.7832">PUT Task (module Task.status=completed)</text><path d="M500.5,520.5254 L562.5,520.5254 L562.5,527.8359 L552.5,537.8359 L500.5,537.8359 L500.5,520.5254 " fill="#EEEEEE" style="stroke:#000000;stroke-width:1.5;"/><rect fill="none" height="126.5527" style="stroke:#000000;stroke-width:1.5;" width="995.5" x="500.5" y="520.5254"/><text fill="#000000" font-family="sans-serif" font-size="13" font-weight="bold" lengthAdjust="spacing" textLength="17" x="515.5" y="534.0938">alt</text><text fill="#000000" font-family="sans-serif" font-size="11" font-weight="bold" lengthAdjust="spacing" textLength="170" x="577.5" y="533.1602">[Update Parent Tasks Directly]</text><path d="M1128,542.8359 L1128,582.8359 L1486,582.8359 L1486,552.8359 L1476,542.8359 L1128,542.8359 " fill="#FEFFDD" style="stroke:#181818;stroke-width:0.5;"/><path d="M1476,542.8359 L1476,552.8359 L1486,552.8359 L1476,542.8359 " fill="#FEFFDD" style="stroke:#181818;stroke-width:0.5;"/><text fill="#000000" font-family="sans-serif" font-size="13" lengthAdjust="spacing" textLength="295" x="1134" y="560.4043">Client knows all modules/units are completed,</text><text fill="#000000" font-family="sans-serif" font-size="13" lengthAdjust="spacing" textLength="337" x="1134" y="575.7148">so it directly updates the parent Task(s) to completed</text><polygon fill="#181818" points="611.5,605.7676,601.5,609.7676,611.5,613.7676,607.5,609.7676" style="stroke:#181818;stroke-width:1.0;"/><line style="stroke:#181818;stroke-width:1.0;" x1="605.5" x2="1122.5" y1="609.7676" y2="609.7676"/><text fill="#000000" font-family="sans-serif" font-size="13" lengthAdjust="spacing" textLength="215" x="617.5" y="605.0254">PUT Unit Task (status=completed)</text><polygon fill="#181818" points="611.5,635.0781,601.5,639.0781,611.5,643.0781,607.5,639.0781" style="stroke:#181818;stroke-width:1.0;"/><line style="stroke:#181818;stroke-width:1.0;" x1="605.5" x2="1122.5" y1="639.0781" y2="639.0781"/><text fill="#000000" font-family="sans-serif" font-size="13" lengthAdjust="spacing" textLength="241" x="617.5" y="634.3359">PUT Syllabus Task (status=completed)</text><polygon fill="#181818" points="1134.5,671.3887,1124.5,675.3887,1134.5,679.3887,1130.5,675.3887" style="stroke:#181818;stroke-width:1.0;"/><line style="stroke:#181818;stroke-width:1.0;" x1="1128.5" x2="1414.5" y1="675.3887" y2="675.3887"/><text fill="#000000" font-family="sans-serif" font-size="13" lengthAdjust="spacing" textLength="215" x="1140.5" y="670.6465">Complete Feedback Questionnaire</text><polygon fill="#181818" points="611.5,700.6992,601.5,704.6992,611.5,708.6992,607.5,704.6992" style="stroke:#181818;stroke-width:1.0;"/><line style="stroke:#181818;stroke-width:1.0;" x1="605.5" x2="1122.5" y1="704.6992" y2="704.6992"/><text fill="#000000" font-family="sans-serif" font-size="13" lengthAdjust="spacing" textLength="262" x="617.5" y="699.957">POST QuestionnaireResponse (completed)</text><rect fill="#EEEEEE" height="3" style="stroke:#EEEEEE;stroke-width:1.0;" width="1647" x="0" y="733.3545"/><line style="stroke:#000000;stroke-width:1.0;" x1="0" x2="1647" y1="733.3545" y2="733.3545"/><line style="stroke:#000000;stroke-width:1.0;" x1="0" x2="1647" y1="736.3545" y2="736.3545"/><rect fill="#EEEEEE" height="23.3105" style="stroke:#000000;stroke-width:2.0;" width="186" x="730.5" y="722.6992"/><text fill="#000000" font-family="sans-serif" font-size="13" font-weight="bold" lengthAdjust="spacing" textLength="168" x="736.5" y="739.2676">Provider View Rendering</text><polygon fill="#181818" points="588.5,773.3203,598.5,777.3203,588.5,781.3203,592.5,777.3203" style="stroke:#181818;stroke-width:1.0;"/><line style="stroke:#181818;stroke-width:1.0;" x1="69.5" x2="594.5" y1="777.3203" y2="777.3203"/><text fill="#000000" font-family="sans-serif" font-size="13" lengthAdjust="spacing" textLength="82" x="76.5" y="772.5781">GET CarePlan</text><polygon fill="#181818" points="588.5,802.6309,598.5,806.6309,588.5,810.6309,592.5,806.6309" style="stroke:#181818;stroke-width:1.0;"/><line style="stroke:#181818;stroke-width:1.0;" x1="69.5" x2="594.5" y1="806.6309" y2="806.6309"/><text fill="#000000" font-family="sans-serif" font-size="13" lengthAdjust="spacing" textLength="507" x="76.5" y="801.8887">GET Task?basedOn=CarePlan/example&amp;owner=nhi&amp;profile=rpmEducationalTask</text><!--SRC=[ZLJBRjim4BphAnOv13QGDlS2Qf6eJbkWXTNuSL-JcuWmJH8aPJT_toKbENRa5DN11hKp-vWTog6FIYY79i9LxL545PKrv66jw7056A1U5-uKjMZGauIAV-7X-uz7M93Vay_OT3v7rsgh81BCFMR4dNC5Lx4UQeoAJ3o7psGhC7K0bJMHmt3VYYt5p9rLzqLHbWCJvcPZqKjbdg4iYteD7pvt7Ns2UhvOvXPhZGRGIBWBmGg5aLlt56ph1OKBdALry9Fsf669OGkJnOlMk6d3z09sPLGy0LzAzylALjC_GAkJDYSO8uecpHCJT9gdFKg2-YWA_uTsvx9GQVHU4CxB-dBQkIEJjRxXxMWICMGDEXg5lgqYWPd3kZBdWQ9eE3PQmG3hKZ-IaMoF8JOgNTcTqnH7HVg1lysMMOSlmaegwGycT8Ui-CsrFR3vIjEeQ-Vjaz9KUhSxaI1ntwHC6dRBsdLgfyF7436seHHzEvB5H1rXvIHxW2taKzTv8_1LUPP8lnJ0Zx4SzkgvYM2VibsXVogT9zqQUs0vjOQkNBXjsGVyXk_3iThDaHKii4jaNmBQN3z0R0ZSQnEJC8LeN_cPpahdTl9XF7EsNpVuUDZBbC7DxzAuPF7-JjaZ93Sejl2xfP0MOf07UxkFPFmpm2C5nzOZc9ok8zraR_TAzb-RtbgNhdDopN1Dnf7ifmq6adDJ3h3Rtbl_vwY_]--></g></svg>