<?xml version="1.0" encoding="us-ascii" standalone="no"?><svg xmlns="http://www.w3.org/2000/svg" xmlns:xlink="http://www.w3.org/1999/xlink" contentStyleType="text/css" height="1039px" preserveAspectRatio="none" style="width:2194px;height:1039px;background:#FFFFFF;" version="1.1" viewBox="0 0 2194 1039" width="2194px" zoomAndPan="magnify"><defs/><g><!--cluster CarePlan Activities--><g id="cluster_CarePlan Activities"><path d="M8.5,315.86 L145.5,315.86 A3.75,3.75 0 0 1 148,318.36 L155,338.3483 L373.5,338.3483 A2.5,2.5 0 0 1 376,340.8483 L376,1029.61 A2.5,2.5 0 0 1 373.5,1032.11 L8.5,1032.11 A2.5,2.5 0 0 1 6,1029.61 L6,318.36 A2.5,2.5 0 0 1 8.5,315.86 " fill="none" style="stroke:#000000;stroke-width:1.5;"/><line style="stroke:#000000;stroke-width:1.5;" x1="6" x2="155" y1="338.3483" y2="338.3483"/><text fill="#000000" font-family="sans-serif" font-size="14" font-weight="bold" lengthAdjust="spacing" textLength="136" x="10" y="331.3952">CarePlan Activities</text></g><!--cluster CarePlan Context Resources--><g id="cluster_CarePlan Context Resources"><path d="M630.5,183.95 L833.5,183.95 A3.75,3.75 0 0 1 836,186.45 L843,206.4383 L1329.5,206.4383 A2.5,2.5 0 0 1 1332,208.9383 L1332,886.12 A2.5,2.5 0 0 1 1329.5,888.62 L630.5,888.62 A2.5,2.5 0 0 1 628,886.12 L628,186.45 A2.5,2.5 0 0 1 630.5,183.95 " fill="none" style="stroke:#000000;stroke-width:1.5;"/><line style="stroke:#000000;stroke-width:1.5;" x1="628" x2="843" y1="206.4383" y2="206.4383"/><text fill="#000000" font-family="sans-serif" font-size="14" font-weight="bold" lengthAdjust="spacing" textLength="202" x="632" y="199.4852">CarePlan Context Resources</text></g><!--cluster Captured Data--><g id="cluster_Captured Data"><path d="M1405.5,663.45 L1509.5,663.45 A3.75,3.75 0 0 1 1512,665.95 L1519,685.9383 L2184.5,685.9383 A2.5,2.5 0 0 1 2187,688.4383 L2187,811.92 A2.5,2.5 0 0 1 2184.5,814.42 L1405.5,814.42 A2.5,2.5 0 0 1 1403,811.92 L1403,665.95 A2.5,2.5 0 0 1 1405.5,663.45 " fill="none" style="stroke:#000000;stroke-width:1.5;"/><line style="stroke:#000000;stroke-width:1.5;" x1="1403" x2="1519" y1="685.9383" y2="685.9383"/><text fill="#000000" font-family="sans-serif" font-size="14" font-weight="bold" lengthAdjust="spacing" textLength="103" x="1407" y="678.9852">Captured Data</text></g><!--class CommunicationRequest--><g id="elem_CommunicationRequest"><rect codeLine="21" fill="#F8BBD0" height="64.4883" id="CommunicationRequest" rx="2.5" ry="2.5" style="stroke:#000000;stroke-width:0.5;" width="210" x="22" y="369.86"/><ellipse cx="43.3" cy="385.86" fill="#ADD1B2" rx="11" ry="11" style="stroke:#181818;stroke-width:1.0;"/><path d="M45.7731,392.0031 Q45.1921,392.3019 44.5529,392.4513 Q43.9138,392.6007 43.2082,392.6007 Q40.7014,392.6007 39.3815,390.9489 Q38.0617,389.297 38.0617,386.1759 Q38.0617,383.0465 39.3815,381.3947 Q40.7014,379.7428 43.2082,379.7428 Q43.9138,379.7428 44.5612,379.8922 Q45.2087,380.0416 45.7731,380.3405 L45.7731,383.0631 Q45.1423,382.4821 44.5488,382.2123 Q43.9553,381.9425 43.3244,381.9425 Q41.9797,381.9425 41.2949,383.0092 Q40.6101,384.0758 40.6101,386.1759 Q40.6101,388.2677 41.2949,389.3344 Q41.9797,390.401 43.3244,390.401 Q43.9553,390.401 44.5488,390.1312 Q45.1423,389.8615 45.7731,389.2804 Z " fill="#000000"/><text fill="#000000" font-family="sans-serif" font-size="14" lengthAdjust="spacing" textLength="164" x="58.7" y="391.151">CommunicationRequest</text><line style="stroke:#000000;stroke-width:0.5;" x1="23" x2="231" y1="401.86" y2="401.86"/><text fill="#000000" font-family="sans-serif" font-size="14" lengthAdjust="spacing" textLength="198" x="28" y="419.3952">subject : Reference to Patient</text><line style="stroke:#000000;stroke-width:0.5;" x1="23" x2="231" y1="426.3483" y2="426.3483"/></g><!--class Task--><g id="elem_Task"><rect codeLine="24" fill="#FFE0B2" height="97.4648" id="Task" rx="2.5" ry="2.5" style="stroke:#000000;stroke-width:0.5;" width="339" x="21.5" y="709.2"/><ellipse cx="170.75" cy="725.2" fill="#ADD1B2" rx="11" ry="11" style="stroke:#181818;stroke-width:1.0;"/><path d="M173.2231,731.3431 Q172.6421,731.6419 172.0029,731.7913 Q171.3638,731.9407 170.6582,731.9407 Q168.1514,731.9407 166.8315,730.2889 Q165.5117,728.637 165.5117,725.5159 Q165.5117,722.3865 166.8315,720.7347 Q168.1514,719.0828 170.6582,719.0828 Q171.3638,719.0828 172.0112,719.2322 Q172.6587,719.3816 173.2231,719.6805 L173.2231,722.4031 Q172.5923,721.8221 171.9988,721.5523 Q171.4053,721.2825 170.7744,721.2825 Q169.4297,721.2825 168.7449,722.3492 Q168.0601,723.4158 168.0601,725.5159 Q168.0601,727.6077 168.7449,728.6744 Q169.4297,729.741 170.7744,729.741 Q171.4053,729.741 171.9988,729.4712 Q172.5923,729.2015 173.2231,728.6204 Z " fill="#000000"/><text fill="#000000" font-family="sans-serif" font-size="14" lengthAdjust="spacing" textLength="32" x="191.25" y="730.491">Task</text><line style="stroke:#000000;stroke-width:0.5;" x1="22.5" x2="359.5" y1="741.2" y2="741.2"/><text fill="#000000" font-family="sans-serif" font-size="14" lengthAdjust="spacing" textLength="198" x="27.5" y="758.7352">subject : Reference to Patient</text><text fill="#000000" font-family="sans-serif" font-size="14" lengthAdjust="spacing" textLength="284" x="27.5" y="775.2234">relevantHistory : Reference to Provenance</text><line style="stroke:#000000;stroke-width:0.5;" x1="22.5" x2="359.5" y1="782.1766" y2="782.1766"/><text fill="#000000" font-family="sans-serif" font-size="14" lengthAdjust="spacing" textLength="327" x="27.5" y="799.7117">code : CodeableConcept ("educational content")</text></g><!--class ServiceRequest--><g id="elem_ServiceRequest"><rect codeLine="29" fill="#E1BEE7" height="64.4883" id="ServiceRequest" rx="2.5" ry="2.5" style="stroke:#000000;stroke-width:0.5;" width="210" x="150" y="951.62"/><ellipse cx="199.25" cy="967.62" fill="#ADD1B2" rx="11" ry="11" style="stroke:#181818;stroke-width:1.0;"/><path d="M201.7231,973.7631 Q201.1421,974.0619 200.5029,974.2113 Q199.8638,974.3607 199.1582,974.3607 Q196.6514,974.3607 195.3315,972.7089 Q194.0117,971.057 194.0117,967.9359 Q194.0117,964.8065 195.3315,963.1547 Q196.6514,961.5028 199.1582,961.5028 Q199.8638,961.5028 200.5112,961.6522 Q201.1587,961.8016 201.7231,962.1005 L201.7231,964.8231 Q201.0923,964.2421 200.4988,963.9723 Q199.9053,963.7025 199.2744,963.7025 Q197.9297,963.7025 197.2449,964.7692 Q196.5601,965.8358 196.5601,967.9359 Q196.5601,970.0277 197.2449,971.0944 Q197.9297,972.161 199.2744,972.161 Q199.9053,972.161 200.4988,971.8912 Q201.0923,971.6215 201.7231,971.0404 Z " fill="#000000"/><text fill="#000000" font-family="sans-serif" font-size="14" lengthAdjust="spacing" textLength="103" x="219.75" y="972.911">ServiceRequest</text><line style="stroke:#000000;stroke-width:0.5;" x1="151" x2="359" y1="983.62" y2="983.62"/><text fill="#000000" font-family="sans-serif" font-size="14" lengthAdjust="spacing" textLength="198" x="156" y="1001.1552">subject : Reference to Patient</text><line style="stroke:#000000;stroke-width:0.5;" x1="151" x2="359" y1="1008.1083" y2="1008.1083"/></g><!--class Condition--><g id="elem_Condition"><rect codeLine="36" fill="#AED581" height="113.9531" id="Condition" rx="2.5" ry="2.5" style="stroke:#000000;stroke-width:0.5;" width="263" x="644.5" y="345.12"/><ellipse cx="737.75" cy="361.12" fill="#ADD1B2" rx="11" ry="11" style="stroke:#181818;stroke-width:1.0;"/><path d="M740.2231,367.2631 Q739.6421,367.5619 739.0029,367.7113 Q738.3638,367.8607 737.6582,367.8607 Q735.1514,367.8607 733.8315,366.2089 Q732.5117,364.557 732.5117,361.4359 Q732.5117,358.3065 733.8315,356.6547 Q735.1514,355.0028 737.6582,355.0028 Q738.3638,355.0028 739.0112,355.1522 Q739.6587,355.3016 740.2231,355.6005 L740.2231,358.3231 Q739.5923,357.7421 738.9988,357.4723 Q738.4053,357.2025 737.7744,357.2025 Q736.4297,357.2025 735.7449,358.2692 Q735.0601,359.3358 735.0601,361.4359 Q735.0601,363.5277 735.7449,364.5944 Q736.4297,365.661 737.7744,365.661 Q738.4053,365.661 738.9988,365.3912 Q739.5923,365.1215 740.2231,364.5404 Z " fill="#000000"/><text fill="#000000" font-family="sans-serif" font-size="14" lengthAdjust="spacing" textLength="68" x="758.25" y="366.411">Condition</text><line style="stroke:#000000;stroke-width:0.5;" x1="645.5" x2="906.5" y1="377.12" y2="377.12"/><text fill="#000000" font-family="sans-serif" font-size="14" lengthAdjust="spacing" textLength="198" x="650.5" y="394.6552">subject : Reference to Patient</text><text fill="#000000" font-family="sans-serif" font-size="14" lengthAdjust="spacing" textLength="251" x="650.5" y="411.1434">performer : Reference to Practitioner</text><line style="stroke:#000000;stroke-width:0.5;" x1="645.5" x2="906.5" y1="418.0966" y2="418.0966"/><text fill="#000000" font-family="sans-serif" font-size="14" lengthAdjust="spacing" textLength="208" x="650.5" y="435.6317">code : CodeableConcept (TBD)</text><text fill="#000000" font-family="sans-serif" font-size="14" lengthAdjust="spacing" textLength="234" x="650.5" y="452.12">category : CodeableConcept (TBD)</text></g><!--class Encounter--><g id="elem_Encounter"><rect codeLine="43" fill="#81D4FA" height="229.3711" id="Encounter" rx="2.5" ry="2.5" style="stroke:#000000;stroke-width:0.5;" width="558" x="644" y="643.25"/><ellipse cx="883.75" cy="659.25" fill="#ADD1B2" rx="11" ry="11" style="stroke:#181818;stroke-width:1.0;"/><path d="M886.2231,665.3931 Q885.6421,665.6919 885.0029,665.8413 Q884.3638,665.9907 883.6582,665.9907 Q881.1514,665.9907 879.8315,664.3389 Q878.5117,662.687 878.5117,659.5659 Q878.5117,656.4365 879.8315,654.7847 Q881.1514,653.1328 883.6582,653.1328 Q884.3638,653.1328 885.0112,653.2822 Q885.6587,653.4316 886.2231,653.7305 L886.2231,656.4531 Q885.5923,655.8721 884.9988,655.6023 Q884.4053,655.3325 883.7744,655.3325 Q882.4297,655.3325 881.7449,656.3992 Q881.0601,657.4658 881.0601,659.5659 Q881.0601,661.6577 881.7449,662.7244 Q882.4297,663.791 883.7744,663.791 Q884.4053,663.791 884.9988,663.5212 Q885.5923,663.2515 886.2231,662.6704 Z " fill="#000000"/><text fill="#000000" font-family="sans-serif" font-size="14" lengthAdjust="spacing" textLength="70" x="904.25" y="664.541">Encounter</text><line style="stroke:#000000;stroke-width:0.5;" x1="645" x2="1201" y1="675.25" y2="675.25"/><text fill="#000000" font-family="sans-serif" font-size="14" lengthAdjust="spacing" textLength="155" x="650" y="692.7852">period_start : datetime</text><text fill="#000000" font-family="sans-serif" font-size="14" lengthAdjust="spacing" textLength="150" x="650" y="709.2734">period_end : datetime</text><text fill="#000000" font-family="sans-serif" font-size="14" lengthAdjust="spacing" textLength="380" x="650" y="725.7617">diagnosis_condition_reference : Reference to Condition</text><line style="stroke:#000000;stroke-width:0.5;" x1="645" x2="1201" y1="732.7148" y2="732.7148"/><text fill="#000000" font-family="sans-serif" font-size="14" lengthAdjust="spacing" textLength="304" x="650" y="750.25">status : string ("in-progress", "finished", etc.)</text><text fill="#000000" font-family="sans-serif" font-size="14" lengthAdjust="spacing" textLength="330" x="650" y="766.7383">class_code : CodeableConcept (e.g. VR = virtual)</text><text fill="#000000" font-family="sans-serif" font-size="14" lengthAdjust="spacing" textLength="546" x="650" y="783.2266">serviceType_code : CodeableConcept (e.g. 554 = Chronic Disease Management)</text><text fill="#000000" font-family="sans-serif" font-size="14" lengthAdjust="spacing" textLength="345" x="650" y="799.7148">priority_code : CodeableConcept (e.g. R = routine)</text><text fill="#000000" font-family="sans-serif" font-size="14" lengthAdjust="spacing" textLength="389" x="650" y="816.2031">subject : Reference to Patient (with identifier and display)</text><text fill="#000000" font-family="sans-serif" font-size="14" lengthAdjust="spacing" textLength="398" x="650" y="832.6914">participant : Reference to Practitioner (identifier + display)</text><text fill="#000000" font-family="sans-serif" font-size="14" lengthAdjust="spacing" textLength="446" x="650" y="849.1797">reasonCode : CodeableConcept (e.g. patient-initiated encounter)</text><text fill="#000000" font-family="sans-serif" font-size="14" lengthAdjust="spacing" textLength="439" x="650" y="865.668">serviceProvider : Reference to Organization (identifier + display)</text></g><!--class CareTeam--><g id="elem_CareTeam"><rect codeLine="57" fill="#FFAB91" height="328.3008" id="CareTeam" rx="2.5" ry="2.5" style="stroke:#000000;stroke-width:0.5;" width="373" x="942.5" y="237.95"/><ellipse cx="1089.75" cy="253.95" fill="#ADD1B2" rx="11" ry="11" style="stroke:#181818;stroke-width:1.0;"/><path d="M1092.2231,260.0931 Q1091.6421,260.3919 1091.0029,260.5413 Q1090.3638,260.6907 1089.6582,260.6907 Q1087.1514,260.6907 1085.8315,259.0389 Q1084.5117,257.387 1084.5117,254.2659 Q1084.5117,251.1365 1085.8315,249.4847 Q1087.1514,247.8328 1089.6582,247.8328 Q1090.3638,247.8328 1091.0112,247.9822 Q1091.6587,248.1316 1092.2231,248.4305 L1092.2231,251.1531 Q1091.5923,250.5721 1090.9988,250.3023 Q1090.4053,250.0325 1089.7744,250.0325 Q1088.4297,250.0325 1087.7449,251.0992 Q1087.0601,252.1658 1087.0601,254.2659 Q1087.0601,256.3577 1087.7449,257.4244 Q1088.4297,258.491 1089.7744,258.491 Q1090.4053,258.491 1090.9988,258.2212 Q1091.5923,257.9515 1092.2231,257.3704 Z " fill="#000000"/><text fill="#000000" font-family="sans-serif" font-size="14" lengthAdjust="spacing" textLength="70" x="1110.25" y="259.241">CareTeam</text><line style="stroke:#000000;stroke-width:0.5;" x1="943.5" x2="1314.5" y1="269.95" y2="269.95"/><text fill="#000000" font-family="sans-serif" font-size="14" lengthAdjust="spacing" textLength="156" x="948.5" y="287.4852">meta_versionId : string</text><text fill="#000000" font-family="sans-serif" font-size="14" lengthAdjust="spacing" textLength="148" x="948.5" y="303.9734">meta_profile[] : string</text><text fill="#000000" font-family="sans-serif" font-size="14" lengthAdjust="spacing" textLength="145" x="948.5" y="320.4617">identifier_use : string</text><text fill="#000000" font-family="sans-serif" font-size="14" lengthAdjust="spacing" textLength="168" x="948.5" y="336.95">identifier_system : string</text><text fill="#000000" font-family="sans-serif" font-size="14" lengthAdjust="spacing" textLength="157" x="948.5" y="353.4383">identifier_value : string</text><text fill="#000000" font-family="sans-serif" font-size="14" lengthAdjust="spacing" textLength="290" x="948.5" y="369.9266">participant_member_identifier_use : string</text><text fill="#000000" font-family="sans-serif" font-size="14" lengthAdjust="spacing" textLength="313" x="948.5" y="386.4148">participant_member_identifier_system : string</text><text fill="#000000" font-family="sans-serif" font-size="14" lengthAdjust="spacing" textLength="302" x="948.5" y="402.9031">participant_member_identifier_value : string</text><text fill="#000000" font-family="sans-serif" font-size="14" lengthAdjust="spacing" textLength="245" x="948.5" y="419.3914">participant_member_display : string</text><text fill="#000000" font-family="sans-serif" font-size="14" lengthAdjust="spacing" textLength="323" x="948.5" y="435.8797">managingOrganization_identifier_value : string</text><text fill="#000000" font-family="sans-serif" font-size="14" lengthAdjust="spacing" textLength="311" x="948.5" y="452.368">managingOrganization_identifier_use : string</text><text fill="#000000" font-family="sans-serif" font-size="14" lengthAdjust="spacing" textLength="334" x="948.5" y="468.8562">managingOrganization_identifier_system : string</text><text fill="#000000" font-family="sans-serif" font-size="14" lengthAdjust="spacing" textLength="266" x="948.5" y="485.3445">managingOrganization_display : string</text><line style="stroke:#000000;stroke-width:0.5;" x1="943.5" x2="1314.5" y1="492.2977" y2="492.2977"/><text fill="#000000" font-family="sans-serif" font-size="14" lengthAdjust="spacing" textLength="188" x="948.5" y="509.8328">status : string ("active", etc.)</text><text fill="#000000" font-family="sans-serif" font-size="14" lengthAdjust="spacing" textLength="320" x="948.5" y="526.3211">name : string ("Remote Monitoring CareTeam")</text><text fill="#000000" font-family="sans-serif" font-size="14" lengthAdjust="spacing" textLength="329" x="948.5" y="542.8094">participant_member_type : string ("Practitioner")</text><text fill="#000000" font-family="sans-serif" font-size="14" lengthAdjust="spacing" textLength="361" x="948.5" y="559.2977">managingOrganization_type : string ("Organization")</text></g><!--class Provenance--><g id="elem_Provenance"><rect codeLine="81" fill="#D1C4E9" height="80.9766" id="Provenance" rx="2.5" ry="2.5" style="stroke:#000000;stroke-width:0.5;" width="210" x="1419" y="717.45"/><ellipse cx="1480.25" cy="733.45" fill="#ADD1B2" rx="11" ry="11" style="stroke:#181818;stroke-width:1.0;"/><path d="M1482.7231,739.5931 Q1482.1421,739.8919 1481.5029,740.0413 Q1480.8638,740.1907 1480.1582,740.1907 Q1477.6514,740.1907 1476.3315,738.5389 Q1475.0117,736.887 1475.0117,733.7659 Q1475.0117,730.6365 1476.3315,728.9847 Q1477.6514,727.3328 1480.1582,727.3328 Q1480.8638,727.3328 1481.5112,727.4822 Q1482.1587,727.6316 1482.7231,727.9305 L1482.7231,730.6531 Q1482.0923,730.0721 1481.4988,729.8023 Q1480.9053,729.5325 1480.2744,729.5325 Q1478.9297,729.5325 1478.2449,730.5992 Q1477.5601,731.6658 1477.5601,733.7659 Q1477.5601,735.8577 1478.2449,736.9244 Q1478.9297,737.991 1480.2744,737.991 Q1480.9053,737.991 1481.4988,737.7212 Q1482.0923,737.4515 1482.7231,736.8704 Z " fill="#000000"/><text fill="#000000" font-family="sans-serif" font-size="14" lengthAdjust="spacing" textLength="79" x="1500.75" y="738.741">Provenance</text><line style="stroke:#000000;stroke-width:0.5;" x1="1420" x2="1628" y1="749.45" y2="749.45"/><text fill="#000000" font-family="sans-serif" font-size="14" lengthAdjust="spacing" textLength="198" x="1425" y="766.9852">subject : Reference to Patient</text><text fill="#000000" font-family="sans-serif" font-size="14" lengthAdjust="spacing" textLength="143" x="1425" y="783.4734">extensionCode : TBD</text><line style="stroke:#000000;stroke-width:0.5;" x1="1420" x2="1628" y1="790.4266" y2="790.4266"/></g><!--class Observation--><g id="elem_Observation"><rect codeLine="86" fill="#80CBC4" height="80.9766" id="Observation" rx="2.5" ry="2.5" style="stroke:#000000;stroke-width:0.5;" width="236" x="1664" y="717.45"/><ellipse cx="1736.25" cy="733.45" fill="#ADD1B2" rx="11" ry="11" style="stroke:#181818;stroke-width:1.0;"/><path d="M1738.7231,739.5931 Q1738.1421,739.8919 1737.5029,740.0413 Q1736.8638,740.1907 1736.1582,740.1907 Q1733.6514,740.1907 1732.3315,738.5389 Q1731.0117,736.887 1731.0117,733.7659 Q1731.0117,730.6365 1732.3315,728.9847 Q1733.6514,727.3328 1736.1582,727.3328 Q1736.8638,727.3328 1737.5112,727.4822 Q1738.1587,727.6316 1738.7231,727.9305 L1738.7231,730.6531 Q1738.0923,730.0721 1737.4988,729.8023 Q1736.9053,729.5325 1736.2744,729.5325 Q1734.9297,729.5325 1734.2449,730.5992 Q1733.5601,731.6658 1733.5601,733.7659 Q1733.5601,735.8577 1734.2449,736.9244 Q1734.9297,737.991 1736.2744,737.991 Q1736.9053,737.991 1737.4988,737.7212 Q1738.0923,737.4515 1738.7231,736.8704 Z " fill="#000000"/><text fill="#000000" font-family="sans-serif" font-size="14" lengthAdjust="spacing" textLength="83" x="1756.75" y="738.741">Observation</text><line style="stroke:#000000;stroke-width:0.5;" x1="1665" x2="1899" y1="749.45" y2="749.45"/><text fill="#000000" font-family="sans-serif" font-size="14" lengthAdjust="spacing" textLength="198" x="1670" y="766.9852">subject : Reference to Patient</text><text fill="#000000" font-family="sans-serif" font-size="14" lengthAdjust="spacing" textLength="224" x="1670" y="783.4734">basedOn : Reference to CarePlan</text><line style="stroke:#000000;stroke-width:0.5;" x1="1665" x2="1899" y1="790.4266" y2="790.4266"/></g><!--class QuestionnaireResponse--><g id="elem_QuestionnaireResponse"><rect codeLine="91" fill="#FFCC80" height="80.9766" id="QuestionnaireResponse" rx="2.5" ry="2.5" style="stroke:#000000;stroke-width:0.5;" width="236" x="1935" y="717.45"/><ellipse cx="1968.45" cy="733.45" fill="#ADD1B2" rx="11" ry="11" style="stroke:#181818;stroke-width:1.0;"/><path d="M1970.9231,739.5931 Q1970.3421,739.8919 1969.7029,740.0413 Q1969.0638,740.1907 1968.3582,740.1907 Q1965.8514,740.1907 1964.5315,738.5389 Q1963.2117,736.887 1963.2117,733.7659 Q1963.2117,730.6365 1964.5315,728.9847 Q1965.8514,727.3328 1968.3582,727.3328 Q1969.0638,727.3328 1969.7112,727.4822 Q1970.3587,727.6316 1970.9231,727.9305 L1970.9231,730.6531 Q1970.2923,730.0721 1969.6988,729.8023 Q1969.1053,729.5325 1968.4744,729.5325 Q1967.1297,729.5325 1966.4449,730.5992 Q1965.7601,731.6658 1965.7601,733.7659 Q1965.7601,735.8577 1966.4449,736.9244 Q1967.1297,737.991 1968.4744,737.991 Q1969.1053,737.991 1969.6988,737.7212 Q1970.2923,737.4515 1970.9231,736.8704 Z " fill="#000000"/><text fill="#000000" font-family="sans-serif" font-size="14" lengthAdjust="spacing" textLength="163" x="1986.55" y="738.741">QuestionnaireResponse</text><line style="stroke:#000000;stroke-width:0.5;" x1="1936" x2="2170" y1="749.45" y2="749.45"/><text fill="#000000" font-family="sans-serif" font-size="14" lengthAdjust="spacing" textLength="198" x="1941" y="766.9852">subject : Reference to Patient</text><text fill="#000000" font-family="sans-serif" font-size="14" lengthAdjust="spacing" textLength="224" x="1941" y="783.4734">basedOn : Reference to CarePlan</text><line style="stroke:#000000;stroke-width:0.5;" x1="1936" x2="2170" y1="790.4266" y2="790.4266"/></g><!--class Consent--><g id="elem_Consent"><rect codeLine="7" fill="#FFF9C4" height="97.4648" id="Consent" rx="2.5" ry="2.5" style="stroke:#000000;stroke-width:0.5;" width="210" x="257" y="15.24"/><ellipse cx="329.25" cy="31.24" fill="#ADD1B2" rx="11" ry="11" style="stroke:#181818;stroke-width:1.0;"/><path d="M331.7231,37.3831 Q331.1421,37.6819 330.5029,37.8313 Q329.8638,37.9807 329.1582,37.9807 Q326.6514,37.9807 325.3315,36.3289 Q324.0117,34.677 324.0117,31.5559 Q324.0117,28.4265 325.3315,26.7747 Q326.6514,25.1228 329.1582,25.1228 Q329.8638,25.1228 330.5112,25.2722 Q331.1587,25.4216 331.7231,25.7205 L331.7231,28.4431 Q331.0923,27.8621 330.4988,27.5923 Q329.9053,27.3225 329.2744,27.3225 Q327.9297,27.3225 327.2449,28.3892 Q326.5601,29.4558 326.5601,31.5559 Q326.5601,33.6477 327.2449,34.7144 Q327.9297,35.781 329.2744,35.781 Q329.9053,35.781 330.4988,35.5112 Q331.0923,35.2415 331.7231,34.6604 Z " fill="#000000"/><text fill="#000000" font-family="sans-serif" font-size="14" lengthAdjust="spacing" textLength="57" x="349.75" y="36.531">Consent</text><line style="stroke:#000000;stroke-width:0.5;" x1="258" x2="466" y1="47.24" y2="47.24"/><text fill="#000000" font-family="sans-serif" font-size="14" lengthAdjust="spacing" textLength="198" x="263" y="64.7752">subject : Reference to Patient</text><text fill="#000000" font-family="sans-serif" font-size="14" lengthAdjust="spacing" textLength="45" x="263" y="81.2634">period</text><text fill="#000000" font-family="sans-serif" font-size="14" lengthAdjust="spacing" text-decoration="line-through" textLength="57" x="320" y="81.2634">optional</text><text fill="#000000" font-family="sans-serif" font-size="14" lengthAdjust="spacing" textLength="185" x="263" y="97.7517">provisionData : Reference[]</text><line style="stroke:#000000;stroke-width:0.5;" x1="258" x2="466" y1="104.7048" y2="104.7048"/></g><!--class CarePlan--><g id="elem_CarePlan"><rect codeLine="13" fill="#BBDEFB" height="113.9531" id="CarePlan" rx="2.5" ry="2.5" style="stroke:#000000;stroke-width:0.5;" width="247" x="502.5" y="7"/><ellipse cx="591.25" cy="23" fill="#ADD1B2" rx="11" ry="11" style="stroke:#181818;stroke-width:1.0;"/><path d="M593.7231,29.1431 Q593.1421,29.4419 592.5029,29.5913 Q591.8638,29.7407 591.1582,29.7407 Q588.6514,29.7407 587.3315,28.0889 Q586.0117,26.437 586.0117,23.3159 Q586.0117,20.1865 587.3315,18.5347 Q588.6514,16.8828 591.1582,16.8828 Q591.8638,16.8828 592.5112,17.0322 Q593.1587,17.1816 593.7231,17.4805 L593.7231,20.2031 Q593.0923,19.6221 592.4988,19.3523 Q591.9053,19.0825 591.2744,19.0825 Q589.9297,19.0825 589.2449,20.1492 Q588.5601,21.2158 588.5601,23.3159 Q588.5601,25.4077 589.2449,26.4744 Q589.9297,27.541 591.2744,27.541 Q591.9053,27.541 592.4988,27.2712 Q593.0923,27.0015 593.7231,26.4204 Z " fill="#000000"/><text fill="#000000" font-family="sans-serif" font-size="14" lengthAdjust="spacing" textLength="61" x="611.75" y="28.291">CarePlan</text><line style="stroke:#000000;stroke-width:0.5;" x1="503.5" x2="748.5" y1="39" y2="39"/><text fill="#000000" font-family="sans-serif" font-size="14" lengthAdjust="spacing" textLength="202" x="508.5" y="56.5352">meta_profile : "RPM CarePlan"</text><text fill="#000000" font-family="sans-serif" font-size="14" lengthAdjust="spacing" textLength="198" x="508.5" y="73.0234">subject : Reference to Patient</text><text fill="#000000" font-family="sans-serif" font-size="14" lengthAdjust="spacing" textLength="235" x="508.5" y="89.5117">condition : Reference to Condition</text><text fill="#000000" font-family="sans-serif" font-size="14" lengthAdjust="spacing" textLength="137" x="508.5" y="106">activity : Reference[]</text><line style="stroke:#000000;stroke-width:0.5;" x1="503.5" x2="748.5" y1="112.9531" y2="112.9531"/></g><!--link CarePlan to Condition--><g id="link_CarePlan_Condition"><path codeLine="99" d="M617.96,121.4 C617.49,136.76 618.6,153.21 623,167.95 C642.96,234.75 685.0822,295.5249 721.4322,339.9849 " fill="none" id="CarePlan-to-Condition" style="stroke:#181818;stroke-width:1.0;"/><polygon fill="#181818" points="725.23,344.63,722.6301,335.1305,722.0652,340.7591,716.4366,340.1942,725.23,344.63" style="stroke:#181818;stroke-width:1.0;"/><text fill="#000000" font-family="sans-serif" font-size="13" lengthAdjust="spacing" textLength="125" x="624" y="164.5184">addresses.reference</text></g><!--link CarePlan to Condition--><!--link CarePlan to Encounter--><g id="link_CarePlan_Encounter"><path codeLine="100" d="M541.54,121.27 C524.72,136.83 509.36,155.23 500,175.95 C419.97,353.07 384.42,460.02 504,613.25 C539.42,658.64 584.3922,687.5692 638.1822,708.8892 " fill="none" id="CarePlan-to-Encounter" style="stroke:#181818;stroke-width:1.0;"/><polygon fill="#181818" points="643.76,711.1,636.8671,704.0652,639.1118,709.2577,633.9194,711.5023,643.76,711.1" style="stroke:#181818;stroke-width:1.0;"/><text fill="#000000" font-family="sans-serif" font-size="13" lengthAdjust="spacing" textLength="125" x="501" y="407.1684">encounter.reference</text></g><!--link CarePlan to CareTeam--><g id="link_CarePlan_CareTeam"><path codeLine="101" d="M749.84,96.29 C806.29,114.13 872.15,140.18 925,175.95 C950.88,193.47 971.446,210.7188 994.326,233.3688 " fill="none" id="CarePlan-to-CareTeam" style="stroke:#181818;stroke-width:1.0;"/><polygon fill="#181818" points="998.59,237.59,995.0081,228.4156,995.0367,234.0724,989.3799,234.1009,998.59,237.59" style="stroke:#181818;stroke-width:1.0;"/><text fill="#000000" font-family="sans-serif" font-size="13" lengthAdjust="spacing" textLength="122" x="911.62" y="164.5184">careTeam.reference</text></g><!--link CarePlan to CommunicationRequest--><g id="link_CarePlan_CommunicationRequest"><path codeLine="102" d="M502.07,116.39 C496.34,118.06 490.63,119.6 485,120.95 C415.77,137.59 217.86,102.16 166,150.95 C105.82,207.57 112.1084,310.0066 120.1584,363.5766 " fill="none" id="CarePlan-to-CommunicationRequest" style="stroke:#181818;stroke-width:1.0;"/><polygon fill="#181818" points="121.05,369.51,123.6682,360.0155,120.307,364.5655,115.757,361.2043,121.05,369.51" style="stroke:#181818;stroke-width:1.0;"/><text fill="#000000" font-family="sans-serif" font-size="13" lengthAdjust="spacing" textLength="108" x="167" y="164.5184">activity.reference</text></g><!--link CarePlan to CommunicationRequest--><!--link CarePlan to Task--><g id="link_CarePlan_Task"><path codeLine="103" d="M502.02,114.79 C496.28,116.91 490.59,118.97 485,120.95 C407.75,148.31 362.36,113.75 309,175.95 C194.78,309.11 289.15,395.24 250,566.25 C238.71,615.57 223.0483,664.9817 209.9983,703.2117 " fill="none" id="CarePlan-to-Task" style="stroke:#181818;stroke-width:1.0;"/><polygon fill="#181818" points="208.06,708.89,214.753,701.6648,209.6753,704.1581,207.1819,699.0804,208.06,708.89" style="stroke:#181818;stroke-width:1.0;"/><text fill="#000000" font-family="sans-serif" font-size="13" lengthAdjust="spacing" textLength="108" x="310" y="407.1684">activity.reference</text></g><!--link CarePlan to ServiceRequest--><g id="link_CarePlan_ServiceRequest"><path codeLine="104" d="M749.73,65.9 C931.85,70.19 1258.52,90.02 1332,175.95 C1384.04,236.81 1386.31,837.78 1332,896.62 C1266.95,967.09 624.5698,979.9556 366.3198,982.2956 " fill="none" id="CarePlan-to-ServiceRequest" style="stroke:#181818;stroke-width:1.0;"/><polygon fill="#181818" points="360.32,982.35,369.3559,986.2683,365.3198,982.3047,369.2834,978.2686,360.32,982.35" style="stroke:#181818;stroke-width:1.0;"/><text fill="#000000" font-family="sans-serif" font-size="13" lengthAdjust="spacing" textLength="108" x="1372.38" y="609.8184">activity.reference</text></g><!--link Task to Provenance--><g id="link_Task_Provenance"><path codeLine="106" d="M276.42,708.76 C338.86,675.76 426.82,635.25 510,617.78 C538.87,611.72 1279.61,599.15 1392,643.25 C1431,658.55 1462.2468,686.2652 1486.5168,712.6352 " fill="none" id="Task-to-Provenance" style="stroke:#181818;stroke-width:1.0;"/><polygon fill="#181818" points="1490.58,717.05,1487.4284,707.719,1487.194,713.371,1481.542,713.1366,1490.58,717.05" style="stroke:#181818;stroke-width:1.0;"/><text fill="#000000" font-family="sans-serif" font-size="13" lengthAdjust="spacing" textLength="96" x="511" y="609.8184">relevantHistory</text></g><!--link Observation to ServiceRequest--><g id="link_Observation_ServiceRequest"><path codeLine="108" d="M1755.27,798.73 C1731.11,831.1 1692.44,874.87 1647,896.62 C1544.29,945.79 1505.55,913 1392,921.62 C1012.55,950.43 566.855,970.2948 366.125,978.5048 " fill="none" id="Observation-to-ServiceRequest" style="stroke:#181818;stroke-width:1.0;"/><polygon fill="#181818" points="360.13,978.75,369.2859,982.3789,365.1258,978.5457,368.959,974.3855,360.13,978.75" style="stroke:#181818;stroke-width:1.0;"/><text fill="#000000" font-family="sans-serif" font-size="13" lengthAdjust="spacing" textLength="55" x="1624.51" y="918.1884">basedOn</text></g><!--link QuestionnaireResponse to CarePlan--><g id="link_QuestionnaireResponse_CarePlan"><path codeLine="110" d="M2025.6,717.15 C1945.81,604.96 1700.71,285.5 1409,150.95 C1294.75,98.25 946.2349,77.1369 755.8549,69.2969 " fill="none" id="QuestionnaireResponse-to-CarePlan" style="stroke:#181818;stroke-width:1.0;"/><polygon fill="#181818" points="749.86,69.05,758.6878,73.4169,754.8558,69.2557,759.017,65.4237,749.86,69.05" style="stroke:#181818;stroke-width:1.0;"/><text fill="#000000" font-family="sans-serif" font-size="13" lengthAdjust="spacing" textLength="55" x="1902.94" y="407.1684">basedOn</text></g><!--link CommunicationRequest to Task--><!--link Task to ServiceRequest--><!--link Condition to Encounter--><!--SRC=[hLRBRkis4DthAmXv4wDr41S9wXXeWKYsqIukale6xI8835eQssmaKYKfjswHVxz3FIdhOI-QJMHo7cVElAW-64-ef3498geK-SyX-EVHu6ClHSf3NqH2aZyEJ4D-8sG8CZ_r8XHpFXqdL_K5Ly0r6QrMgqV_FZEbqksV46Wo9slOWGGU0D62l53DK1G54f1CX8HC9aGacWbE8_ms5r8ScSA31TNKrdzxjrnI2IyHvMJaUOlboijyng3f1jLtB09KTDSlNof1znfCWU0XCrZEHVpo0eLeeDcHwLCRMeAiq3qGjqBtbCioK6w6iEGhZbFE0ceihk6l59GXRuQXt1Lvk0ZrixBsIjM7eNvvv_rmhRO9DJGS-VYFRYF000D8DBbn8KnpO9WFv4EZWZlEL2H4SAHS_yAK5lBKievv0qxnLmFULv175a0LvdBgBPS_NXzc9w- -0VQFHYqbKXdaz5hybcaSFIqN3xFfzRHWLUw4Z46sepDvDqP13XBuwYrokf15sESyzGbzrfYNFC2kq-XuD9ikxbTFUHTfgbE55fIMZEynFOnFiCBt4fHoloVkZd6c3X3YD-ZWTbpQs_J1WzlzBVbzJNuYHoPrIYEZel8SlPuI65PyUBX7JVyW1POlMJ05L07vGZcc9qOEnrd_CY6nFuOj6GGuPpJZCBxOckJcRwOFX8NupNOCIQ8y925JIKHFcKygDGjOWjKvb3XoOvduhc4WcqORv5iQ2o7cJhCOwXj0XurpYQ4BxW_5cEJe9vWZpL0p951csVWC6TrpePX9Lb6m6rb17vX0HRfCms4yhL9zbdlAsRzP4_T5RFgpxXTigrV0JO1JvCbxdFQKNZRumAeqJcEm1TOG2utbWCM10yASbPQp2PADvoD8Czj_3Il5iy7zzcxVrEWtgOAU6tLI6kAUooEDqeQYLIkR6E8jocWiV3iGksRSSRTEFx9XuJROOVbhy1TfRL1gUX8_xM9enMbVvYdgqXe2SqdXZ9fBucroEZLQyU8WRUw9HASI-yqy8HgheLvIPBIO-lVBn-jt0ouSuAPuYwR78TwSuSzRqvbvturcTxvNl8Mkihx5IHe-jryUnSfhUlhDx59qmocJk5fLObvWfdrzVtRt__hCvWIwTghbEvdyRAtOEQ5XQDOHgDjgUZM5wzqshoTWdt0vCkQuGFElNickPzIyUf_rgMNlfSjYP- -MJWKdisMahRgQdp-K7CSkZ4xRHI8Sfpkn9IyPE4kw1lnsO26sqNiFBKudLxQMYQG8npfj0krrMAwckYhi-ohzpZS0]--></g></svg>